<?xml version="1.0" standalone="no"?>
<!DOCTYPE svg PUBLIC "-//W3C//DTD SVG 20010904//EN"
 "http://www.w3.org/TR/2001/REC-SVG-20010904/DTD/svg10.dtd">
<svg version="1.0" xmlns="http://www.w3.org/2000/svg"
 width="520.000000pt" height="520.000000pt" viewBox="0 0 520.000000 520.000000"
 preserveAspectRatio="xMidYMid meet">
<metadata>
Created by potrace 1.11, written by Peter Selinger 2001-2013
</metadata>
<g transform="translate(0.000000,520.000000) scale(0.100000,-0.100000)"
fill="#000000" stroke="none">
<path d="M0 5155 l0 -45 135 0 c74 0 135 -4 135 -8 0 -14 -54 -39 -163 -73
l-107 -33 0 -206 0 -205 21 35 c32 52 100 140 110 140 4 0 29 -22 55 -50 26
-27 80 -75 121 -107 l73 -56 88 60 c130 90 244 152 287 158 44 5 67 -10 116
-82 41 -58 36 -74 -9 -30 -21 20 -41 37 -46 37 -8 0 32 -61 47 -71 13 -9 -1
-29 -19 -29 -17 0 -17 0 1 -37 23 -46 65 -166 65 -185 0 -12 -8 -18 -24 -18
-20 0 -30 12 -57 66 -25 51 -54 86 -128 155 -52 49 -99 89 -105 89 -6 0 23
-33 65 -73 65 -62 169 -192 169 -211 0 -3 -9 -6 -20 -6 -22 0 -113 -41 -118
-53 -2 -4 -15 -21 -29 -38 -23 -27 -24 -32 -10 -46 14 -14 17 -13 31 16 21 39
29 39 44 -1 10 -27 14 -30 22 -18 8 13 14 10 34 -15 21 -26 26 -28 41 -15 10
9 15 24 13 41 -3 20 -1 26 10 21 11 -4 13 2 7 28 -5 23 -4 31 4 25 8 -4 10
-26 5 -67 -5 -45 -4 -59 5 -54 6 4 11 22 11 40 0 18 6 41 14 51 13 18 14 17
30 -13 9 -17 16 -46 17 -64 0 -31 2 -30 29 27 22 46 29 54 29 35 2 -51 -22
-104 -66 -151 -48 -52 -49 -55 -9 -39 21 7 26 6 26 -5 0 -8 -3 -15 -8 -15 -4
0 -8 -18 -8 -39 -1 -22 -12 -59 -26 -83 -21 -38 -28 -94 -10 -86 4 2 38 19 76
37 67 34 69 34 83 16 13 -19 14 -19 19 3 7 26 30 29 55 6 17 -15 18 -14 16 12
-2 25 2 29 26 32 23 3 27 0 27 -21 0 -41 -19 -127 -36 -162 -9 -19 -13 -39 -9
-44 9 -16 0 -14 -39 10 -34 20 -38 20 -90 5 -68 -20 -85 -14 -92 33 l-6 38
-87 -58 c-81 -54 -114 -88 -142 -151 -13 -29 -33 -36 -45 -16 -4 6 -6 40 -5
75 2 66 -14 88 -25 34 -5 -23 -15 -32 -53 -46 -25 -10 -51 -22 -58 -27 -6 -5
-31 -11 -54 -13 -60 -6 -68 -19 -34 -51 l28 -26 -23 -18 c-28 -21 -11 -36 22
-19 23 12 23 12 4 -10 -11 -11 -25 -21 -31 -21 -7 0 -16 -7 -19 -16 -3 -8 -11
-12 -17 -8 -8 5 -6 11 7 21 16 12 17 15 4 23 -8 5 -18 6 -22 4 -9 -6 -76 15
-96 29 -6 5 -12 18 -12 28 0 11 -6 19 -13 19 -19 0 -36 -20 -30 -36 3 -8 0
-14 -6 -14 -6 0 -11 5 -11 10 0 6 -7 10 -16 10 -14 0 -15 8 -9 48 4 26 8 48 8
49 6 6 121 42 125 39 4 -5 -51 -31 -86 -41 -12 -3 -22 -10 -22 -15 0 -7 200
66 210 77 3 3 -8 3 -25 -1 -21 -4 -25 -3 -14 3 9 6 39 7 72 2 57 -8 57 -8 57
19 0 24 3 26 35 22 20 -2 35 0 35 6 0 6 12 13 27 15 22 3 21 4 -4 3 -18 -1
-33 2 -33 6 0 4 -8 8 -17 8 -31 0 -163 48 -163 59 -1 3 -10 17 -21 30 -15 18
-23 21 -31 13 -8 -8 -8 -15 1 -26 6 -7 14 -38 16 -67 3 -43 3 -47 -4 -19 -13
58 -46 102 -87 116 -43 15 -53 12 -34 -11 7 -9 10 -18 7 -22 -10 -10 -37 18
-37 38 0 12 -7 19 -20 19 -26 0 -25 -10 4 -41 16 -17 21 -31 16 -40 -7 -10
-15 -7 -35 15 -15 16 -30 39 -35 51 -9 25 -75 42 -96 24 -8 -7 -13 -6 -17 3
-2 7 -8 10 -12 6 -17 -16 6 -36 50 -42 25 -4 49 -14 51 -21 5 -13 -26 -133
-47 -180 -5 -11 -14 -33 -20 -50 -18 -48 -21 -12 -5 53 22 81 20 92 -9 57 -23
-28 -25 -38 -25 -147 0 -107 7 -137 25 -108 9 15 43 12 71 -7 47 -31 108 -180
154 -378 11 -49 26 -111 32 -137 10 -42 9 -50 -7 -68 -23 -26 -89 -44 -121
-33 -13 4 -24 11 -24 15 0 5 -9 32 -19 60 -11 29 -27 80 -36 113 -9 33 -20 67
-23 75 -3 8 -16 56 -28 105 l-22 90 -1 -86 c-1 -85 1 -96 64 -299 13 -43 13
-46 -18 -105 -18 -33 -35 -61 -39 -63 -5 -2 -8 -244 -8 -538 l0 -533 29 -15
c42 -22 113 -46 137 -46 22 0 204 -116 204 -130 0 -5 30 -38 66 -74 36 -37 62
-71 59 -76 -4 -6 -23 -18 -43 -28 -26 -12 -37 -24 -37 -39 -1 -26 -83 -115
-98 -106 -5 3 -7 40 -5 85 l5 80 -35 -7 c-30 -5 -39 -2 -67 25 l-32 31 -61
-17 c-37 -10 -71 -27 -86 -43 l-24 -26 19 -155 c10 -85 19 -160 19 -166 0 -7
21 10 47 37 27 28 60 56 75 64 38 21 91 19 121 -5 21 -16 26 -17 31 -5 8 22
63 41 137 49 77 7 114 -3 122 -35 6 -20 4 -21 -40 -15 -61 8 -169 -10 -210
-35 -25 -16 -33 -28 -33 -50 l0 -28 36 24 c55 38 134 57 134 33 -1 -26 -26
-45 -68 -51 -24 -3 -52 -13 -63 -23 -16 -14 -21 -15 -35 -3 -14 11 -19 10 -36
-14 -22 -30 -43 -35 -52 -12 -8 21 -62 19 -75 -2 -8 -13 -13 -15 -19 -6 -5 8
-19 9 -43 4 -19 -4 -45 -4 -57 0 l-22 8 0 -169 0 -170 47 36 c44 33 48 35 60
18 10 -13 10 -20 1 -25 -6 -4 -12 -29 -12 -55 -1 -41 -4 -49 -21 -52 -11 -2
-32 -8 -48 -14 l-27 -10 0 -244 0 -244 2600 0 2600 0 0 80 0 80 -62 0 c-34 0
-76 -5 -95 -12 -58 -21 -183 33 -183 80 0 7 -7 20 -15 29 -11 10 -13 19 -6 27
6 7 6 17 1 26 -10 15 -14 60 -5 60 2 0 23 -9 45 -21 89 -47 122 4 128 196 2
72 -1 141 -6 154 -6 16 -7 -20 -4 -105 4 -122 3 -132 -21 -186 -16 -35 -32
-58 -42 -58 -22 0 -174 75 -207 103 -17 13 -70 107 -136 240 -89 177 -110 214
-114 193 -3 -15 -1 -26 6 -26 5 0 3 -7 -5 -16 -12 -12 -24 -13 -50 -7 -42 11
-50 38 -15 47 20 5 26 12 25 34 -1 17 -3 20 -6 10 -7 -29 -31 -21 -37 12 -3
16 -9 45 -12 63 l-6 32 21 -19 c11 -11 21 -24 21 -31 0 -7 11 -24 25 -39 14
-15 25 -23 25 -18 0 24 -31 80 -59 106 -17 16 -38 49 -47 73 -15 40 -31 52
-47 37 -3 -4 -2 -15 4 -25 6 -13 6 -19 -1 -19 -5 0 -10 -13 -10 -29 0 -22 -12
-39 -54 -75 -30 -25 -62 -46 -71 -46 -9 0 -34 9 -57 20 -22 11 -45 17 -50 14
-14 -9 -38 17 -38 42 0 31 18 40 35 18 13 -17 16 -17 25 -4 7 11 5 16 -5 18
-21 5 -21 92 0 92 8 0 15 7 15 16 0 10 -6 13 -19 9 -21 -6 -51 31 -51 65 0 18
20 30 20 13 0 -5 7 -16 15 -27 12 -15 16 -16 30 -5 31 25 60 55 113 117 29 34
56 62 60 62 4 0 15 -20 25 -44 17 -41 17 -47 3 -69 -19 -28 -12 -39 19 -31 18
5 27 -3 51 -43 16 -26 32 -56 36 -66 11 -27 28 -20 28 12 0 46 9 60 54 80 23
10 58 32 78 50 20 17 38 31 42 31 3 0 3 -15 0 -32 l-6 -33 22 33 c17 25 25 30
35 22 9 -8 15 -8 20 0 3 5 -1 10 -9 10 -9 0 -16 3 -16 7 0 10 51 176 60 193
21 43 -1 345 -25 338 -11 -3 -11 -2 6 -69 15 -59 4 -179 -17 -179 -11 0 -14
-17 -14 -75 0 -40 -5 -97 -11 -125 -10 -45 -13 -49 -24 -34 -8 12 -11 39 -7
84 l4 66 -58 61 c-33 33 -65 63 -73 65 -13 4 -12 10 2 46 9 23 17 52 17 63 0
15 5 19 16 15 18 -7 64 21 64 38 0 7 -11 34 -24 62 -23 49 -74 218 -79 263 -5
50 23 29 75 -56 30 -48 65 -112 78 -140 25 -55 34 -63 44 -38 3 8 12 15 21 15
12 0 11 10 -9 63 -12 34 -26 85 -30 114 -6 51 -6 52 21 55 l28 3 -3 85 c-6
146 -43 324 -73 350 -13 12 -21 52 -34 188 -10 95 -15 175 -12 178 3 3 23 -4
46 -15 22 -12 45 -21 50 -21 6 0 33 34 61 76 42 62 54 73 66 63 8 -6 14 -8 14
-5 0 4 14 -9 31 -29 17 -19 35 -35 40 -35 5 0 48 29 96 66 61 45 92 76 104
103 9 21 24 41 32 44 9 3 25 24 37 46 19 39 20 56 20 545 0 455 -2 508 -16
525 -17 19 -17 19 -37 0 -21 -19 -21 -19 -33 8 -7 16 -23 40 -37 54 -23 24
-40 90 -27 102 3 3 38 2 78 -2 65 -6 72 -5 72 11 0 10 -10 20 -25 24 -14 3
-25 10 -25 15 0 5 11 11 25 15 24 6 25 8 25 100 0 86 -2 94 -19 94 -33 0 -36
22 -7 46 26 23 26 26 24 129 -3 119 -3 119 -80 69 -35 -23 -43 -23 -39 0 1 4
-5 30 -14 57 -9 27 -14 53 -10 59 3 5 37 10 76 10 l69 0 0 45 0 45 -2600 0
-2600 0 0 -45z m3678 -24 c1 -4 30 -6 65 -4 l62 3 -105 -29 c-291 -79 -344
-91 -363 -85 -12 4 -17 2 -13 -5 4 -6 -4 -10 -21 -10 -40 0 -93 -12 -93 -21 0
-5 -22 -11 -50 -15 -27 -4 -50 -11 -50 -15 0 -5 -8 -8 -17 -8 -20 1 -455 -129
-827 -246 -236 -73 -240 -74 -275 -59 -20 8 -59 15 -87 15 -78 1 -233 -55
-316 -114 -27 -19 -48 -17 -48 3 0 6 4 8 9 5 9 -6 25 53 17 61 -2 3 -10 -6
-17 -19 -28 -52 -85 -108 -124 -123 -76 -27 -197 -57 -211 -51 -9 4 -14 21
-14 50 0 25 -6 65 -14 88 -18 57 -39 148 -35 152 13 12 604 187 744 221 55 13
156 37 225 54 69 16 213 48 320 71 107 22 238 50 290 61 52 11 131 24 175 27
100 9 769 2 773 -7z m1260 -42 c-11 -6 -29 -6 -50 0 -32 9 -31 9 17 10 38 0
46 -2 33 -10z m-158 -18 c0 -24 13 -33 75 -55 94 -33 105 -38 98 -49 -4 -6 -1
-7 8 -2 24 15 99 14 99 -1 0 -8 6 -14 13 -14 6 0 20 -14 30 -31 13 -24 20 -29
31 -20 15 13 39 -9 50 -46 6 -18 -1 -28 -35 -53 -23 -16 -48 -30 -56 -30 -7 0
-13 -5 -13 -11 0 -6 -12 -10 -27 -9 -44 3 -46 1 -29 -25 9 -13 16 -31 16 -39
0 -9 16 -16 45 -20 34 -6 45 -12 45 -25 0 -27 -10 -31 -36 -14 -22 14 -24 14
-24 0 0 -9 -7 -22 -15 -31 -19 -19 -45 -9 -122 45 -29 20 -74 42 -100 48 -89
23 -123 43 -123 73 0 17 6 28 18 31 13 3 11 6 -10 15 -16 6 -28 18 -28 26 0
29 22 28 53 -2 24 -23 36 -29 47 -22 8 5 25 10 38 10 26 0 29 18 5 35 -10 7
-18 27 -19 44 -2 45 -13 81 -24 81 -6 0 -10 -9 -10 -20 0 -11 -5 -20 -12 -20
-14 0 -68 50 -68 62 0 13 78 9 83 -4 3 -9 8 -10 15 -3 16 14 3 29 -45 54 -52
26 -55 41 -8 41 28 0 35 -4 35 -19z m-128 -13 c-7 -7 -12 -8 -12 -2 0 6 3 14
7 17 3 4 9 5 12 2 2 -3 -1 -11 -7 -17z m-3772 -117 c0 -32 1 -33 18 -18 20 19
48 22 57 8 3 -5 -7 -11 -22 -13 -18 -2 -32 -13 -43 -32 -18 -35 -54 -70 -93
-92 -23 -12 -35 -13 -63 -4 -38 13 -38 13 -24 41 8 15 7 19 -4 19 -8 0 -18 -4
-21 -10 -3 -5 -21 -10 -39 -10 -19 0 -49 -11 -72 -26 -48 -33 -119 -36 -99 -5
3 6 21 11 39 11 19 0 39 7 46 15 7 8 23 15 35 15 13 0 25 7 29 15 3 8 17 20
31 25 16 6 33 26 44 51 13 29 20 36 24 25 4 -9 14 -16 22 -16 13 0 15 -6 10
-29 -6 -26 -4 -29 14 -24 12 3 21 1 21 -6 0 -6 -6 -11 -13 -11 -17 0 -59 -44
-50 -53 14 -15 68 -6 90 15 26 24 30 48 9 48 -7 0 -17 8 -20 18 -3 9 -13 28
-21 42 -17 30 -19 59 -5 96 l11 27 44 -43 c36 -35 45 -51 45 -79z m2980 82 c0
-3 -8 -15 -17 -26 -17 -18 -17 -19 0 -28 9 -6 17 -15 17 -21 0 -19 32 -48 52
-48 11 0 17 -4 13 -9 -3 -5 0 -31 6 -58 7 -26 11 -73 10 -103 -2 -64 -29 -159
-45 -161 -6 -1 -27 -2 -46 -3 -38 -1 -100 -30 -100 -46 0 -6 -9 -19 -20 -30
-17 -17 -26 -59 -21 -92 0 -5 -6 -8 -15 -8 -9 0 -12 5 -8 12 5 8 2 9 -10 5
-10 -4 -30 -10 -44 -14 -24 -6 -25 -7 -7 -15 15 -6 13 -7 -8 -3 -32 6 -109
-14 -101 -26 3 -5 -2 -6 -11 -3 -9 4 -26 2 -38 -4 -12 -6 -41 -16 -64 -22 -24
-6 -43 -15 -43 -21 0 -6 -5 -7 -10 -4 -6 4 -30 -1 -54 -10 -24 -9 -68 -20 -97
-24 l-54 -6 85 -44 c100 -51 162 -96 250 -185 35 -37 67 -66 70 -66 3 0 24 23
45 52 37 48 40 50 46 27 3 -13 -1 -42 -8 -64 -8 -22 -13 -49 -11 -60 1 -11 -3
-34 -11 -52 -8 -21 -11 -51 -7 -85 3 -29 9 -81 12 -115 7 -72 19 -85 71 -85
64 0 72 -9 60 -70 -16 -83 -17 -83 -120 -28 -73 39 -257 110 -284 110 -3 0 -2
-11 1 -25 8 -31 -1 -50 -17 -37 -19 14 -87 31 -167 42 -41 6 -126 17 -189 26
-62 8 -115 13 -118 11 -6 -7 90 -27 130 -28 18 0 59 -6 91 -13 l59 -12 -28
-22 -28 -22 26 0 c17 0 28 7 32 20 4 13 13 19 23 16 9 -2 33 -7 52 -11 95 -18
129 -45 56 -45 -23 0 -38 7 -49 23 -12 17 -16 18 -16 6 -1 -23 21 -39 66 -49
29 -7 39 -5 48 7 17 23 45 9 45 -23 0 -24 -3 -25 -27 -19 -233 59 -454 86
-747 91 -138 3 -252 7 -255 10 -3 3 2 10 12 15 22 13 23 30 1 22 -11 -4 -15
-2 -12 7 2 8 26 14 63 16 33 2 79 6 101 9 48 5 61 -3 36 -21 -9 -7 -14 -16
-10 -20 11 -10 38 16 38 37 0 18 -9 19 -115 19 l-115 0 0 29 c0 29 -2 30 -52
33 l-53 3 -45 75 c-40 67 -44 81 -43 132 1 38 -4 61 -13 69 -10 8 -12 23 -8
50 5 30 3 40 -10 45 -9 3 -16 12 -16 18 0 16 109 108 167 142 49 29 55 38 17
24 -34 -13 -75 -42 -144 -101 -30 -26 -71 -50 -90 -54 -31 -7 -33 -6 -21 9 38
45 261 176 301 176 13 0 13 -1 0 -10 -26 -17 -5 -11 51 14 104 46 200 61 379
61 155 0 160 0 88 10 -94 12 -115 27 -61 43 38 11 682 140 823 165 l75 13 5
145 5 145 74 87 c65 75 101 104 101 80z m-3662 -50 c-3 -54 2 -79 25 -103 12
-14 33 -40 45 -57 19 -27 21 -33 7 -33 -8 0 -25 15 -36 34 -13 23 -30 36 -51
40 l-31 6 7 54 c3 30 9 61 12 70 10 26 24 18 22 -11z m4482 -3 c0 -13 -5 -18
-15 -14 -8 4 -15 12 -15 20 0 8 7 14 15 14 8 0 15 -9 15 -20z m-4260 -63 c13
-23 13 -28 0 -40 -8 -8 -26 -17 -40 -20 -22 -5 -28 -2 -38 26 -7 17 -8 33 -3
35 4 1 17 9 27 17 24 18 35 15 54 -18z m590 5 c0 -4 -5 -13 -12 -20 -9 -9 -3
-20 29 -47 23 -19 56 -58 73 -87 27 -43 29 -52 17 -60 -12 -6 -14 -15 -6 -41
11 -40 11 -46 -1 -27 -8 13 -10 12 -11 -5 -1 -11 -1 -29 0 -40 1 -17 -2 -15
-24 10 -14 17 -25 33 -25 37 0 14 -100 157 -117 167 -24 13 -8 29 34 33 24 2
30 6 24 17 -6 10 -13 10 -28 3 -11 -6 -30 -8 -43 -5 -20 5 -18 8 21 27 24 12
43 27 42 34 -2 6 4 12 12 12 8 0 15 -4 15 -8z m3735 -11 c19 -8 19 -8 -1 -19
-16 -8 -24 -8 -32 0 -25 25 -8 35 33 19z m-75 -82 c0 -5 -4 -9 -10 -9 -5 0
-10 7 -10 16 0 8 5 12 10 9 6 -3 10 -10 10 -16z m-389 -43 l40 7 -13 -29 c-6
-16 -18 -37 -27 -47 -20 -24 -8 -31 45 -28 l46 3 -18 -26 c-15 -21 -25 -25
-48 -21 -16 3 -38 12 -47 21 -10 9 -23 13 -28 9 -13 -8 -15 -45 -2 -45 12 0
26 -39 22 -62 -1 -11 18 -25 64 -47 36 -17 68 -31 72 -31 13 0 43 -33 43 -48
0 -10 -7 -12 -25 -8 -30 8 -30 5 -7 -33 17 -28 20 -29 34 -15 12 13 20 14 36
5 29 -15 52 -14 52 4 0 11 12 15 44 15 34 0 51 6 77 30 33 29 34 29 50 11 24
-29 37 -9 31 48 -4 45 -3 48 24 59 85 33 173 -49 122 -113 -11 -14 -28 -25
-37 -25 -14 0 -17 -6 -13 -25 5 -27 10 -30 32 -15 10 7 11 13 5 18 -7 4 3 20
26 40 34 30 38 31 53 17 26 -27 20 -55 -11 -56 -16 -1 -34 -1 -40 0 -7 1 -13
-2 -13 -7 0 -6 21 -13 48 -17 67 -10 87 -22 70 -42 -21 -26 -70 -43 -91 -31
-10 5 -20 8 -21 6 -1 -2 -14 -20 -29 -40 -15 -20 -27 -40 -27 -45 0 -11 124
-63 151 -63 12 0 19 3 15 8 -4 4 -17 7 -29 7 -11 0 -22 6 -24 13 -3 8 8 12 39
12 31 0 48 6 61 20 12 14 29 20 58 20 52 0 49 -24 -4 -28 -33 -3 -37 -6 -37
-30 0 -39 -10 -49 -58 -57 -35 -6 -42 -10 -37 -23 4 -10 12 -30 17 -47 6 -16
15 -36 21 -43 5 -7 7 -15 3 -19 -3 -4 -12 2 -20 12 -22 31 -28 0 -11 -64 19
-75 19 -92 0 -85 -10 4 -15 0 -15 -16 0 -59 -24 -109 -81 -173 -59 -65 -116
-113 -124 -105 -10 10 17 78 30 78 19 0 19 14 1 29 -8 7 -22 28 -31 47 -9 20
-21 32 -27 28 -6 -4 -28 12 -49 37 -55 65 -59 40 -4 -30 l47 -60 -23 -56 c-26
-62 -55 -99 -71 -89 -6 4 -9 38 -6 92 4 71 1 97 -18 150 -12 34 -24 66 -28 69
-3 4 -6 14 -6 24 0 30 -16 31 -74 4 -30 -14 -64 -25 -75 -25 -11 0 -48 -29
-88 -70 -37 -38 -74 -70 -80 -70 -22 0 -15 56 14 115 23 46 31 55 54 55 48 0
119 13 119 21 0 5 -25 9 -55 9 -34 0 -55 4 -55 11 0 8 -11 9 -32 4 -18 -4 -44
-8 -57 -8 -18 -2 -24 -9 -27 -31 -1 -15 -11 -37 -20 -47 -30 -34 -36 -1 -25
132 9 112 12 123 41 159 21 26 29 46 25 59 -5 15 6 25 62 53 37 19 68 41 68
49 0 9 13 15 33 17 21 2 32 9 32 19 0 24 -91 101 -176 149 l-76 44 -45 -43
c-44 -42 -72 -60 -59 -38 8 12 -3 56 -11 47 -4 -3 -12 7 -20 22 -12 23 -12 33
2 79 22 70 66 123 124 150 26 12 54 30 62 39 8 10 15 12 17 5 2 -7 18 -9 43
-5z m-3851 -6 c13 -9 11 -13 -10 -30 -30 -24 -33 -24 -70 -5 -41 21 -37 33 13
38 23 2 44 4 47 5 3 1 12 -3 20 -8z m2067 -159 c-8 -20 -29 -66 -46 -103 -45
-97 -41 -111 18 -57 20 18 37 27 43 21 5 -5 3 -14 -7 -22 -8 -7 -15 -24 -15
-37 0 -27 -35 -83 -51 -83 -6 0 -26 16 -46 35 -20 19 -42 35 -48 35 -27 0 -23
32 12 102 20 40 62 110 92 156 l56 83 3 -47 c2 -25 -3 -63 -11 -83z m2176 99
c-3 -11 -17 -29 -31 -40 -23 -19 -24 -21 -8 -38 9 -10 16 -25 16 -33 1 -24 26
-50 44 -43 14 5 16 -2 16 -51 0 -50 -2 -56 -15 -45 -8 7 -15 23 -15 36 0 37
-17 37 -52 0 -19 -19 -47 -36 -65 -40 -45 -8 -43 10 6 58 36 35 40 43 37 84
-2 40 -6 47 -42 69 -35 22 -46 24 -114 18 -123 -10 -72 5 81 24 79 10 145 19
146 20 0 0 -1 -8 -4 -19z m495 -28 c2 -7 -6 -12 -17 -12 -12 0 -21 4 -21 9 0
5 -3 18 -7 28 -7 17 -6 17 17 2 13 -9 26 -21 28 -27z m-352 -15 c3 -8 16 -12
33 -9 21 3 33 -2 45 -19 9 -13 24 -24 33 -24 10 0 19 -9 21 -20 3 -11 9 -24
16 -28 6 -5 1 -6 -11 -2 -35 10 -45 -2 -28 -35 18 -35 19 -43 3 -38 -7 3 -15
15 -19 29 -3 13 -11 23 -18 21 -6 -1 -14 5 -17 13 -4 8 -14 15 -24 15 -24 0
-36 20 -20 30 10 6 3 13 -21 23 -19 7 -41 22 -49 32 -8 11 -10 16 -3 12 6 -4
14 -3 18 3 9 14 35 12 41 -3z m-16 -62 c7 -9 10 -19 6 -22 -4 -4 -11 -1 -16 7
-7 11 -13 12 -36 2 -33 -15 -46 -6 -20 14 26 18 50 18 66 -1z m-481 -46 c11
-33 6 -36 -21 -12 -22 20 -26 72 -4 54 8 -7 19 -25 25 -42z m-1569 35 c0 -25
-49 -79 -88 -96 l-45 -20 -18 23 c-10 13 -18 26 -18 29 0 3 30 19 67 37 64 30
102 40 102 27z m2390 -4 c0 -5 -4 -10 -10 -10 -5 0 -10 5 -10 10 0 6 5 10 10
10 6 0 10 -4 10 -10z m-40 -10 c0 -5 -4 -10 -10 -10 -5 0 -10 5 -10 10 0 6 5
10 10 10 6 0 10 -4 10 -10z m-720 -51 c0 -5 -6 -9 -14 -9 -15 0 -26 21 -26 48
1 14 5 12 20 -7 11 -13 20 -27 20 -32z m60 -26 c0 -8 -6 -13 -12 -11 -17 6
-38 49 -31 62 8 11 43 -30 43 -51z m-2918 5 c-7 -7 -12 -8 -12 -2 0 14 12 26
19 19 2 -3 -1 -11 -7 -17z m1048 -8 c0 -11 -4 -20 -9 -20 -13 0 -32 26 -24 33
13 14 33 6 33 -13z m240 -54 c0 -38 -97 -61 -130 -31 -11 10 -20 22 -20 26 0
4 30 10 68 12 37 2 70 4 75 5 4 1 7 -4 7 -12z m-1361 -13 c-18 -23 -43 -42
-48 -38 -3 4 50 54 58 55 2 0 -3 -8 -10 -17z m-49 -80 c0 -10 -61 -105 -84
-131 -12 -13 -37 -30 -57 -38 -31 -13 -38 -22 -53 -74 -17 -57 -28 -71 -40
-52 -3 5 0 25 6 45 6 20 9 39 6 42 -3 3 -26 -3 -51 -12 -25 -9 -49 -14 -52
-11 -4 4 0 21 8 40 29 65 36 98 27 123 -17 44 15 59 150 68 91 7 140 7 140 0z
m2674 -148 c-4 -8 -14 -15 -23 -15 -12 0 -31 -27 -59 -83 -56 -110 -56 -141 0
-97 14 10 28 16 32 12 4 -3 17 -7 29 -7 18 0 22 -6 23 -36 2 -53 12 -106 36
-184 36 -119 33 -115 54 -71 11 22 24 41 30 43 15 5 26 -52 18 -93 -9 -50 13
-52 55 -5 57 63 98 89 151 96 27 4 54 13 61 21 18 22 29 17 29 -15 0 -17 4
-32 9 -35 5 -3 19 -25 31 -48 20 -37 22 -54 17 -123 -2 -44 -3 -86 0 -93 3 -8
20 1 49 28 66 60 101 47 53 -21 -26 -37 -15 -36 69 1 92 42 126 61 135 77 4 7
14 13 21 13 8 0 16 7 20 15 13 36 72 -1 78 -50 11 -86 85 68 89 185 1 25 4 34
6 20 2 -14 9 -36 16 -49 9 -19 9 -25 0 -28 -9 -3 -13 -27 -13 -71 -1 -57 -7
-79 -38 -142 -30 -61 -43 -76 -69 -85 -18 -5 -38 -16 -45 -24 -11 -11 -9 -12
12 -7 70 18 108 30 143 42 36 14 37 13 37 -11 0 -21 -8 -26 -60 -41 -58 -16
-61 -19 -92 -75 -25 -45 -38 -59 -55 -59 -29 0 -29 1 2 62 27 53 26 70 0 48
-21 -17 -31 -5 -14 17 8 9 -2 5 -22 -10 -20 -15 -41 -27 -46 -27 -6 0 -16 -6
-22 -14 -13 -16 -69 -28 -146 -32 -27 -1 -68 -5 -90 -8 -40 -6 -53 -2 -110 38
-15 11 -61 27 -104 36 -63 14 -88 26 -144 68 -37 28 -86 56 -110 62 -23 6 -47
13 -54 15 -6 2 -27 28 -46 58 -20 30 -41 58 -47 62 -17 11 -70 126 -70 153 0
33 -17 18 -23 -20 -3 -25 2 -40 22 -65 46 -55 107 -147 120 -180 10 -25 24
-35 74 -54 45 -17 76 -38 117 -79 l55 -57 77 -6 c61 -4 90 -12 138 -38 55 -29
65 -31 93 -21 31 11 116 22 203 25 32 2 46 9 66 32 15 17 29 27 33 24 3 -4 -9
-23 -28 -43 -27 -28 -43 -36 -73 -38 -49 -1 -52 -2 -89 -17 -16 -7 -53 -14
-82 -16 -28 -1 -56 -6 -62 -9 -6 -4 -31 2 -55 14 -25 11 -51 20 -59 20 -26 0
-77 22 -71 31 3 5 -2 9 -11 9 -9 0 -13 -4 -10 -10 7 -11 -8 -14 -18 -3 -4 4
-24 7 -44 7 -33 1 -40 6 -59 40 -12 22 -31 44 -41 49 -17 10 -17 9 1 -11 30
-35 10 -26 -47 21 -29 23 -67 49 -85 56 -23 10 -35 22 -39 42 -3 16 -10 27
-16 26 -6 -1 -27 30 -46 68 -20 39 -46 85 -58 102 -27 37 -28 56 -7 141 15 60
15 67 -2 110 -10 26 -17 56 -16 66 3 41 57 143 106 199 60 69 125 111 110 72z
m-2014 1 c0 -3 -4 -8 -10 -11 -5 -3 -10 -1 -10 4 0 6 5 11 10 11 6 0 10 -2 10
-4z m-30 -52 c0 -9 -5 -14 -12 -12 -18 6 -21 28 -4 28 9 0 16 -7 16 -16z
m-100 -85 c-55 -52 -60 -55 -60 -39 0 19 103 116 108 102 2 -8 -19 -36 -48
-63z m-770 41 c0 -5 -4 -10 -10 -10 -5 0 -10 5 -10 10 0 6 5 10 10 10 6 0 10
-4 10 -10z m-10 -34 c0 -3 -4 -8 -10 -11 -5 -3 -10 -1 -10 4 0 6 5 11 10 11 6
0 10 -2 10 -4z m884 -103 c-24 -37 -44 -73 -44 -80 0 -6 31 -31 69 -53 38 -23
77 -51 87 -63 l19 -21 -25 17 c-66 45 -104 70 -135 85 -19 9 -35 21 -35 25 0
15 95 157 106 157 1 0 -18 -30 -42 -67z m1800 -63 c25 -53 39 -96 36 -106 -6
-15 -8 -14 -14 7 -7 23 -8 23 -15 4 -15 -43 -41 -94 -50 -100 -6 -3 -14 3 -20
13 -10 18 4 76 30 124 8 15 3 31 -21 74 -24 44 -29 59 -19 70 17 21 27 10 73
-86z m-3034 -240 c0 -11 -7 -20 -15 -20 -8 0 -15 9 -15 20 0 11 7 20 15 20 8
0 15 -9 15 -20z m426 -100 c24 -63 44 -118 44 -121 0 -4 -24 -16 -54 -28 -37
-15 -57 -31 -65 -49 -7 -15 -37 -72 -68 -126 -48 -86 -58 -97 -68 -83 -19 27
-25 20 -25 -28 0 -25 -4 -45 -8 -45 -5 0 -18 17 -30 39 -18 31 -22 55 -22 120
l0 81 -29 0 c-42 0 -57 -23 -43 -65 6 -21 6 -37 1 -41 -5 -3 -5 -12 1 -23 6
-12 5 -22 -1 -28 -8 -8 -5 -17 9 -31 27 -27 42 -56 42 -81 0 -16 -6 -21 -29
-21 -16 0 -31 6 -34 13 -3 9 -7 9 -21 -2 -14 -12 -19 -11 -36 4 -28 25 -33 51
-16 77 8 13 20 52 27 88 6 36 16 73 21 83 14 28 -12 20 -61 -18 -25 -20 -61
-38 -83 -41 -30 -5 -42 -14 -55 -38 -9 -17 -18 -25 -20 -18 -7 19 -67 14 -91
-8 -27 -26 -28 -40 -3 -40 11 0 23 -9 27 -22 5 -16 0 -27 -20 -44 -14 -13 -26
-26 -26 -29 0 -13 47 -46 113 -80 70 -37 76 -45 53 -65 -23 -18 -52 -87 -70
-165 -9 -38 -20 -73 -24 -77 -11 -11 -143 39 -170 64 -29 28 -28 37 5 36 73
-2 133 27 133 64 0 11 5 28 10 38 7 13 7 21 0 25 -5 3 -10 19 -10 35 0 23 -30
70 -76 119 -2 3 -13 -5 -24 -17 -12 -12 -27 -22 -35 -22 -7 0 -27 -17 -45 -37
-25 -31 -32 -35 -40 -23 -16 24 -13 27 60 66 55 28 69 41 64 53 -26 63 -28 70
-16 84 7 8 22 13 32 10 43 -11 4 44 -50 72 -17 9 -30 21 -30 28 0 6 -11 23
-23 37 -17 19 -31 25 -62 24 -22 0 -48 3 -58 8 -18 9 -23 53 -7 63 18 11 10
23 -19 30 -18 4 -28 11 -25 19 2 6 -7 22 -21 34 -29 26 -32 42 -7 42 9 0 23
-12 30 -27 18 -39 57 -64 105 -68 23 -2 44 -4 47 -5 3 -1 12 -2 22 -1 9 1 19
-3 23 -9 6 -10 18 -1 123 92 12 12 33 21 45 22 14 1 27 12 37 33 19 42 45 46
28 6 -16 -38 -38 -63 -55 -63 -7 0 -17 -8 -21 -17 -4 -10 -29 -55 -56 -100
-43 -74 -66 -94 -66 -60 0 18 -61 50 -73 38 -6 -6 3 -21 27 -41 20 -18 36 -37
36 -44 0 -13 74 -76 89 -76 6 0 11 4 11 10 0 15 41 33 80 34 28 1 34 5 32 19
-4 26 28 179 41 195 8 11 5 18 -12 31 -22 17 -23 20 -10 54 16 47 32 48 23 3
-5 -31 -3 -35 18 -38 15 -2 24 -11 26 -25 2 -16 12 -25 30 -29 38 -8 92 -32
92 -42 0 -27 -34 -50 -89 -61 -49 -10 -64 -18 -82 -42 -12 -17 -19 -32 -16
-35 6 -6 108 41 147 67 14 9 50 21 80 25 47 8 55 12 58 33 6 38 70 200 92 231
19 26 127 72 159 67 7 -1 33 -53 57 -117z m-1069 43 c-3 -10 -5 -2 -5 17 0 19
2 27 5 18 2 -10 2 -26 0 -35z m643 -23 c-6 -11 -16 -20 -22 -20 -6 0 -8 -11
-4 -30 8 -42 -13 -38 -42 7 l-23 36 29 -6 c22 -4 34 -1 47 13 23 26 29 25 15
0z m-265 0 c-3 -6 1 -17 9 -26 9 -9 14 -20 11 -25 -11 -16 -25 -10 -25 11 0
11 -4 20 -10 20 -5 0 -15 -9 -22 -20 -14 -22 -28 -26 -28 -10 0 14 46 60 60
60 6 0 8 -5 5 -10z m183 -68 c3 -9 -2 -13 -14 -10 -9 1 -19 9 -22 16 -3 9 2
13 14 10 9 -1 19 -9 22 -16z m-468 -22 c0 -5 -4 -10 -10 -10 -5 0 -10 5 -10
10 0 6 5 10 10 10 6 0 10 -4 10 -10z m604 -11 c21 -20 -5 -20 -36 1 l-33 22
30 -7 c17 -3 34 -11 39 -16z m-579 -8 c3 -5 1 -12 -5 -16 -5 -3 -10 1 -10 9 0
18 6 21 15 7z m45 -11 c0 -5 -7 -10 -15 -10 -8 0 -15 5 -15 10 0 6 7 10 15 10
8 0 15 -4 15 -10z m40 -11 c0 -5 -4 -9 -10 -9 -5 0 -10 7 -10 16 0 8 5 12 10
9 6 -3 10 -10 10 -16z m2895 -49 c3 -5 1 -10 -4 -10 -6 0 -11 5 -11 10 0 6 2
10 4 10 3 0 8 -4 11 -10z m197 -56 c124 -27 218 -68 334 -144 96 -63 111 -82
90 -112 -10 -14 -13 -37 -11 -72 l4 -51 -9 48 c-16 91 -81 187 -150 222 -44
22 -154 45 -190 39 -19 -3 -81 4 -138 15 -57 12 -107 19 -111 16 -5 -2 -11
-14 -14 -25 -4 -17 5 -26 54 -50 68 -35 73 -36 65 -13 -4 10 -4 14 0 11 4 -4
18 2 32 12 42 33 48 22 11 -17 -61 -64 -84 -125 -83 -223 0 -71 4 -94 26 -140
35 -73 107 -148 122 -129 6 8 22 20 36 27 14 7 41 21 60 31 19 11 38 17 41 15
4 -2 39 9 77 25 39 16 80 27 91 24 12 -3 32 2 46 11 14 9 25 13 25 8 0 -4 40
-8 88 -8 136 -2 253 -36 315 -92 15 -14 27 -23 27 -20 0 12 101 -95 115 -123
9 -16 20 -29 25 -29 6 0 10 -6 10 -14 0 -8 6 -21 13 -28 7 -7 19 -28 26 -45 7
-18 17 -31 21 -28 10 6 21 -77 11 -90 -4 -5 -16 -32 -26 -60 -10 -27 -21 -54
-26 -59 -4 -5 -43 28 -88 74 -79 81 -81 83 -101 65 -13 -11 -20 -31 -21 -54
l0 -36 -16 25 c-23 35 -132 140 -146 140 -6 0 11 -24 39 -52 57 -60 112 -135
145 -199 32 -63 79 -277 58 -264 -5 4 -9 12 -9 19 0 17 -105 174 -143 214 -32
33 -27 39 17 22 21 -7 26 -6 26 5 0 15 -43 31 -68 27 -7 -2 -29 11 -48 27 -35
31 -54 39 -54 22 0 -5 7 -14 15 -21 8 -7 15 -16 15 -20 0 -15 -44 -19 -60 -6
-8 7 -23 16 -32 19 -10 4 -18 12 -18 19 0 7 -9 24 -20 38 -19 25 -20 25 -20 3
0 -12 9 -44 19 -71 11 -27 17 -59 14 -71 -3 -14 -1 -21 8 -21 8 0 29 -35 46
-77 l33 -77 -32 30 c-65 60 -78 78 -73 102 4 15 1 22 -9 22 -7 0 -19 13 -26
30 -7 16 -19 35 -27 42 -14 11 -15 8 -8 -22 4 -19 11 -39 15 -45 15 -21 21
-68 9 -76 -20 -12 55 -131 140 -223 34 -36 34 -38 11 -31 -25 7 -68 40 -83 63
-11 16 -37 16 -37 -1 0 -7 16 -28 35 -47 50 -49 44 -49 -63 -3 -86 37 -172
121 -172 167 0 12 -40 46 -55 46 -11 0 -4 -21 20 -56 14 -20 23 -39 20 -42 -9
-9 -55 40 -55 58 0 9 -9 25 -19 34 -11 10 -22 28 -25 42 -4 13 -11 24 -16 24
-6 0 -4 -14 4 -34 12 -30 12 -36 -2 -51 -16 -16 -16 -17 5 -11 17 6 29 -3 66
-51 25 -32 54 -68 66 -80 26 -28 26 -33 0 -33 -20 0 -94 -39 -87 -46 2 -1 30
6 63 17 45 15 64 17 77 10 26 -16 30 -14 23 10 -7 21 -6 21 26 -4 33 -24 112
-52 192 -67 35 -7 38 -6 34 11 -4 16 1 19 29 19 41 0 43 12 7 35 -40 26 -77
64 -69 72 3 4 12 -1 19 -10 11 -15 16 -14 56 13 48 33 84 37 158 19 40 -11 48
-17 65 -57 22 -48 42 -42 31 10 -10 49 0 59 41 40 20 -9 36 -19 36 -23 0 -3
-20 -25 -45 -48 -25 -23 -45 -46 -45 -52 0 -8 5 -7 15 1 9 7 18 11 20 8 10
-10 -6 -36 -25 -41 -13 -3 -19 -17 -23 -48 -3 -24 -8 -57 -12 -74 -6 -30 -6
-30 10 4 8 18 15 44 15 56 0 21 5 23 45 23 25 -1 45 -4 45 -8 0 -3 -21 -35
-46 -71 -25 -35 -50 -72 -55 -82 -21 -38 30 2 68 53 25 33 40 47 47 40 7 -7
-7 -28 -41 -63 -49 -50 -143 -184 -143 -204 0 -5 -17 -25 -37 -44 -80 -74 -75
-72 -175 -70 -51 1 -109 6 -128 11 -19 5 -64 14 -100 21 -77 14 -106 28 -140
64 l-25 28 28 -5 c32 -6 36 7 6 22 -59 32 -133 125 -84 106 22 -8 18 5 -13 44
-16 19 -34 45 -41 58 -12 22 -11 23 8 13 17 -10 27 -4 78 48 33 34 70 62 86
65 15 3 38 8 52 11 22 5 24 8 13 25 -25 39 -104 13 -187 -61 -46 -42 -42 -45
-61 64 -14 77 -8 180 11 203 9 11 10 18 2 22 -13 8 -2 84 16 106 17 20 4 87
-26 133 l-24 38 5 -35 c2 -19 8 -54 11 -77 6 -35 5 -43 -8 -43 -11 0 -17 -16
-22 -61 -4 -33 -5 -63 -2 -65 3 -3 -6 -22 -19 -42 -17 -24 -21 -38 -13 -41 6
-2 15 3 20 10 6 9 9 -2 9 -31 0 -25 2 -63 5 -85 l5 -40 -24 50 c-14 28 -25 57
-25 65 -1 8 -12 29 -26 45 -19 23 -24 26 -25 13 0 -22 39 -139 51 -153 13 -13
11 -43 -3 -48 -14 -5 5 -49 52 -122 45 -69 44 -66 13 -54 -59 22 -153 110
-185 172 -12 23 -29 67 -39 97 -11 36 -17 46 -18 30 -1 -38 44 -157 76 -198
15 -20 41 -49 58 -64 16 -16 26 -28 23 -28 -17 0 -85 43 -107 68 l-25 27 7
-25 c4 -14 7 -30 7 -37 0 -7 6 -10 14 -7 17 6 35 -26 56 -96 28 -98 53 -170
57 -166 2 2 -5 31 -17 65 -23 69 -32 153 -15 148 5 -2 20 -19 32 -38 42 -64
124 -129 163 -129 6 0 29 -18 51 -40 l40 -39 -34 1 c-45 2 -54 -6 -68 -52 -7
-22 -15 -40 -18 -40 -3 0 -25 31 -48 67 -47 73 -58 59 -18 -22 14 -27 25 -59
25 -69 0 -11 9 -39 20 -62 15 -30 26 -41 38 -37 15 3 17 15 14 81 -4 84 10
121 42 109 13 -5 16 -22 18 -84 l2 -78 3 70 c4 74 14 95 44 95 16 0 19 -8 19
-46 0 -27 4 -43 10 -39 6 3 10 19 10 35 0 35 11 43 45 34 21 -5 25 -12 25 -42
0 -37 15 -35 22 3 2 15 11 20 33 20 29 0 30 -1 30 -55 0 -41 7 -67 26 -100 20
-35 25 -55 21 -87 -2 -24 -6 -43 -9 -43 -2 0 -17 6 -32 14 -26 14 -32 13 -76
-10 -59 -29 -65 -29 -110 -4 -44 25 -51 25 -58 0 -3 -13 1 -24 14 -30 13 -8
19 -7 19 0 0 7 6 8 19 0 30 -16 68 -12 112 11 40 20 91 19 104 -2 4 -5 12 -9
20 -9 9 0 15 15 17 47 2 34 7 48 17 48 11 0 15 -15 17 -58 1 -32 7 -63 12 -70
6 -8 7 -41 2 -92 -5 -44 -7 -131 -5 -194 3 -99 6 -117 23 -130 10 -9 27 -41
37 -71 10 -30 22 -64 28 -75 5 -10 20 -39 33 -64 13 -24 24 -48 24 -53 0 -6 9
-21 20 -35 11 -14 20 -33 20 -41 0 -9 7 -23 16 -33 29 -32 9 -40 -89 -33 -51
4 -93 8 -94 9 -2 1 6 19 17 40 11 22 20 46 20 53 0 8 6 12 14 9 13 -5 13 -1 0
35 -8 22 -14 53 -14 68 0 36 -19 90 -32 90 -6 0 -7 -8 -3 -17 4 -10 9 -54 12
-99 9 -128 -17 -177 -107 -208 -54 -19 -59 -15 -127 88 -38 57 -48 82 -53 131
-6 59 -6 60 -16 26 -9 -33 -34 -56 -34 -32 0 6 6 11 13 11 6 0 4 5 -6 11 -12
7 -15 17 -11 35 4 14 2 24 -5 24 -13 0 -21 -34 -18 -80 2 -35 3 -36 50 -23 12
4 17 0 17 -16 0 -23 52 -110 89 -148 11 -12 21 -26 21 -31 0 -5 -165 -9 -368
-11 l-367 -2 -50 48 c-63 61 -105 113 -105 130 0 7 -9 22 -20 33 -20 20 -26
20 -253 10 -127 -5 -266 -10 -307 -9 -74 0 -74 1 -39 14 73 27 116 54 164 107
39 43 62 59 105 72 49 16 67 29 111 84 5 6 32 12 59 12 58 0 69 11 35 38 -14
11 -25 27 -25 35 0 8 -6 17 -14 20 -7 3 -17 18 -20 34 -4 15 -13 42 -20 58
-34 80 -55 237 -35 261 5 7 6 14 2 17 -4 3 -195 -5 -423 -18 -228 -13 -471
-25 -540 -27 l-125 -3 3 55 c2 30 7 58 10 62 4 4 54 -9 111 -28 131 -43 135
-43 126 -2 -11 50 -27 85 -32 71 -7 -19 -133 -18 -133 1 0 8 5 16 12 18 7 3 8
10 4 17 -7 11 -10 11 -18 0 -6 -10 -7 -6 -3 10 6 19 4 23 -8 18 -10 -4 -21 3
-31 19 -19 28 -19 28 27 9 44 -18 47 -18 47 -2 0 6 21 29 46 49 54 44 75 47
317 51 l169 2 18 -47 c25 -67 77 -126 111 -128 4 0 51 45 105 99 l99 99 160 7
c116 6 176 13 220 27 33 11 73 20 89 20 16 -1 38 4 48 9 28 15 87 17 150 6 82
-15 94 -3 67 66 -12 29 -18 63 -15 78 6 30 -2 43 -18 30 -16 -13 -416 -68
-416 -57 0 3 28 26 63 52 82 63 190 154 182 154 -4 0 -16 -5 -28 -11 -19 -9
-19 -8 3 10 13 10 29 17 34 14 5 -3 6 -1 3 4 -4 6 0 16 8 23 19 16 19 38 -1
85 -17 41 -23 83 -27 190 -3 68 -4 70 -28 66 -62 -9 -136 -80 -158 -151 -10
-33 -9 -45 3 -68 26 -50 62 -67 141 -66 66 1 68 0 40 -12 -59 -26 -124 -11
-177 40 -27 26 -44 35 -33 16 4 -6 -6 -10 -22 -10 l-28 1 28 15 c51 27 27 31
-53 8 -65 -19 -277 -54 -327 -54 -6 0 -29 -16 -50 -35 -21 -19 -56 -48 -78
-63 -80 -54 -190 -135 -200 -146 -16 -19 -76 -59 -80 -54 -3 2 13 18 35 34
336 248 571 482 737 735 67 103 173 308 218 424 38 95 92 314 101 405 4 41 15
90 26 108 10 18 18 49 18 68 l0 36 43 -7 c23 -4 90 -17 149 -31z m502 10 c5
-14 4 -15 -9 -4 -17 14 -19 20 -6 20 5 0 12 -7 15 -16z m171 -99 l20 -16 -20
10 c-11 5 -29 17 -40 26 l-20 16 20 -10 c11 -5 29 -17 40 -26z m-81 9 c3 -8 2
-12 -4 -9 -6 3 -10 10 -10 16 0 14 7 11 14 -7z m-539 -104 c0 -18 -9 -29 -34
-42 -38 -19 -61 -14 -61 13 0 30 37 61 68 57 21 -2 27 -8 27 -28z m-3150 0 c3
-5 -3 -10 -14 -10 -28 0 -27 -24 2 -43 16 -11 18 -16 7 -16 -21 -1 -60 27 -60
43 0 29 51 49 65 26z m304 -47 c16 -34 -1 -53 -46 -53 -52 0 -37 -18 45 -52
69 -29 83 -40 63 -52 -16 -10 -135 45 -165 77 l-29 31 23 8 c13 5 30 6 38 3
21 -8 52 4 52 20 0 8 -9 20 -20 28 -23 16 -18 27 9 20 10 -3 24 -16 30 -30z
m3738 21 c-3 -3 -12 -4 -19 -1 -8 3 -5 6 6 6 11 1 17 -2 13 -5z m-3110 -20 c3
-8 1 -20 -6 -27 -8 -8 -11 -8 -11 0 0 6 -3 18 -6 27 -3 9 -1 16 5 16 7 0 14
-7 18 -16z m3408 -26 c-4 -11 -66 -52 -97 -66 -5 -2 -8 12 -8 32 0 34 1 35 43
39 23 2 47 4 54 5 7 1 10 -4 8 -10z m-4298 -15 c6 -16 -63 -55 -89 -51 -32 4
-26 21 11 34 17 5 36 15 43 22 14 14 30 11 35 -5z m536 -92 c18 -17 22 -33 22
-79 -1 -69 -52 -186 -110 -251 -32 -35 -43 -41 -77 -41 -45 0 -102 27 -137 63
-20 23 -23 32 -16 72 10 73 39 126 96 181 83 78 97 86 152 81 32 -3 56 -12 70
-26z m-482 -34 c-16 -16 -14 -24 9 -30 13 -3 20 0 20 9 0 8 7 14 16 14 14 0
16 -9 10 -61 -6 -71 -23 -94 -71 -103 -49 -9 -78 8 -93 56 -12 38 -11 45 10
85 24 44 42 54 52 28 8 -21 28 -19 24 3 -1 9 1 23 6 31 7 11 11 10 18 -4 7
-11 6 -21 -1 -28z m3416 -49 c-3 -7 -5 -2 -5 12 0 14 2 19 5 13 2 -7 2 -19 0
-25z m-2307 -73 c40 -42 48 -43 56 -10 11 44 65 34 206 -36 102 -50 184 -124
245 -223 32 -52 37 -68 37 -125 1 -60 -1 -66 -26 -80 -24 -14 -32 -13 -80 2
-49 16 -57 23 -100 91 -38 60 -53 76 -84 86 -28 10 -39 10 -42 1 -2 -6 -10
-11 -17 -11 -30 0 -178 86 -243 141 -77 65 -167 174 -152 184 5 3 20 -7 32
-22 65 -78 168 -177 222 -212 66 -43 164 -70 137 -38 -7 9 -11 25 -9 35 3 10
0 22 -6 27 -24 21 -96 65 -96 58 0 -4 -13 13 -29 38 -15 24 -45 60 -65 78 -35
34 -44 51 -28 51 4 0 23 -16 42 -35z m-297 -69 c36 -54 133 -156 148 -156 5 0
9 -4 9 -10 0 -21 -29 -9 -74 31 -55 49 -140 164 -131 179 9 15 9 15 48 -44z
m-133 -10 c0 -2 3 -12 7 -21 5 -14 2 -16 -14 -11 -27 9 -47 -17 -39 -50 7 -25
7 -25 32 -9 37 24 41 11 5 -15 l-31 -21 -17 35 c-17 36 -17 36 12 66 26 27 45
38 45 26z m-244 -128 c-24 -51 -47 -109 -51 -128 -4 -19 -12 -46 -17 -59 -9
-25 -9 -24 -38 20 -17 24 -30 47 -30 50 0 4 29 39 65 79 36 40 75 91 87 112
41 72 30 21 -16 -74z m778 36 c3 -8 2 -12 -4 -9 -6 3 -10 10 -10 16 0 14 7 11
14 -7z m-1021 -24 c9 -11 13 -20 7 -20 -5 0 -14 9 -20 20 -6 11 -9 20 -8 20 2
0 11 -9 21 -20z m635 -14 c103 -52 273 -96 373 -96 61 0 79 -13 32 -24 -16 -3
-73 -9 -128 -12 -83 -6 -119 -3 -203 15 -100 22 -165 43 -190 64 -10 8 -6 17
20 42 18 18 37 33 41 34 4 0 29 -10 55 -23z m416 -2 c9 -24 2 -26 -12 -4 -7
11 -8 20 -3 20 5 0 12 -7 15 -16z m-639 -34 l30 -35 -28 25 -29 25 -29 -35
c-16 -19 -41 -58 -55 -87 -14 -28 -32 -54 -40 -57 -12 -5 -12 -2 -3 17 14 27
121 189 123 185 1 -2 15 -19 31 -38z m-348 14 c-3 -3 -12 -4 -19 -1 -8 3 -5 6
6 6 11 1 17 -2 13 -5z m423 -70 c0 -3 -14 -17 -32 -32 -18 -15 -59 -51 -91
-79 -56 -50 -87 -65 -87 -43 0 6 4 10 10 10 5 0 38 26 74 58 35 31 72 64 82
74 19 16 44 23 44 12z m3471 -17 c-10 -9 -11 -8 -5 6 3 10 9 15 12 12 3 -3 0
-11 -7 -18z m-3298 -72 c43 -51 57 -56 57 -20 0 14 5 25 11 25 5 0 7 5 4 10
-3 6 -1 10 4 10 6 0 11 -11 11 -24 0 -14 6 -31 13 -38 7 -7 30 -41 51 -75 20
-35 42 -63 47 -63 5 0 14 11 19 24 5 13 13 27 18 30 10 6 95 -159 107 -206 15
-58 28 -54 123 37 l90 85 12 -65 c7 -36 16 -65 20 -65 5 0 19 18 31 40 28 50
39 51 38 3 0 -66 -31 -118 -136 -235 -56 -62 -121 -142 -145 -177 -31 -46 -56
-71 -88 -87 -62 -32 -153 -54 -236 -57 -66 -2 -72 0 -129 38 -33 22 -92 71
-131 110 -93 91 -109 136 -101 274 12 185 92 351 212 436 27 19 51 35 55 35 3
0 23 -20 43 -45z m-429 -27 c8 -6 8 -8 -1 -8 -15 0 -35 35 -25 45 4 4 9 -1 11
-12 2 -10 8 -21 15 -25z m3773 0 c-3 -7 -5 -2 -5 12 0 14 2 19 5 13 2 -7 2
-19 0 -25z m-3497 19 c0 -2 -10 -12 -22 -23 l-23 -19 19 23 c18 21 26 27 26
19z m759 -29 c23 -43 62 -63 122 -63 42 0 62 5 78 19 21 19 21 19 21 -8 0 -41
-17 -66 -56 -82 -42 -17 -96 -10 -136 18 -24 16 -58 94 -58 130 0 16 17 8 29
-14z m-1049 -38 c0 -5 -4 -10 -10 -10 -5 0 -10 5 -10 10 0 6 5 10 10 10 6 0
10 -4 10 -10z m3704 -12 c2 -7 13 -41 24 -75 12 -34 17 -65 13 -67 -14 -9 -80
6 -92 20 -8 10 -6 27 6 66 10 29 20 56 22 61 7 11 23 8 27 -5z m-3000 -14 c3
-8 2 -12 -4 -9 -6 3 -10 10 -10 16 0 14 7 11 14 -7z m3106 -10 c0 -8 -4 -14
-10 -14 -5 0 -10 9 -10 21 0 11 5 17 10 14 6 -3 10 -13 10 -21z m-290 -45 c27
-17 50 -35 50 -40 0 -5 -20 -9 -44 -9 -37 0 -44 3 -49 23 -2 12 -8 30 -12 40
-10 23 -3 22 55 -14z m285 -9 c3 -5 1 -10 -4 -10 -6 0 -11 5 -11 10 0 6 2 10
4 10 3 0 8 -4 11 -10z m-660 -30 c3 -5 2 -10 -4 -10 -5 0 -13 5 -16 10 -3 6
-2 10 4 10 5 0 13 -4 16 -10z m-2975 -4 c0 -2 -8 -10 -17 -17 -16 -13 -17 -12
-4 4 13 16 21 21 21 13z m3125 -48 c42 -55 35 -55 -32 1 -40 32 -47 52 -20 51
7 -1 30 -24 52 -52z m515 33 c0 -5 -7 -11 -14 -14 -10 -4 -13 -1 -9 9 6 15 23
19 23 5z m-569 -50 c97 -75 165 -138 157 -146 -9 -10 -138 -13 -144 -4 -2 4
15 12 38 17 l43 10 -42 1 c-23 1 -45 -4 -48 -9 -11 -18 -36 10 -66 77 -31 67
-37 103 -15 103 7 0 42 -22 77 -49z m296 -8 c-9 -9 -19 -14 -23 -11 -10 10 6
28 24 28 15 0 15 -1 -1 -17z m46 -8 c-10 -13 -22 -25 -27 -25 -5 0 1 11 14 25
30 32 36 32 13 0z m186 -31 c32 -54 25 -64 -14 -19 -38 44 -42 55 -21 55 8 0
23 -16 35 -36z m-1519 -39 c0 -8 -7 -15 -15 -15 -8 0 -15 7 -15 15 0 8 7 15
15 15 8 0 15 -7 15 -15z m904 -61 c26 -23 27 -27 14 -41 -14 -13 -18 -11 -37
20 -34 55 -25 63 23 21z m-3121 -15 c24 -11 76 -103 65 -114 -6 -6 -95 42
-104 56 -5 9 4 69 11 69 2 0 15 -5 28 -11z m3777 -34 c0 -5 -5 -3 -10 5 -5 8
-10 20 -10 25 0 6 5 3 10 -5 5 -8 10 -19 10 -25z m-600 5 c0 -5 -7 -10 -16
-10 -8 0 -12 5 -9 10 3 6 10 10 16 10 5 0 9 -4 9 -10z m437 -42 c-3 -8 -6 -5
-6 6 -1 11 2 17 5 13 3 -3 4 -12 1 -19z m180 0 c-3 -8 -6 -5 -6 6 -1 11 2 17
5 13 3 -3 4 -12 1 -19z m-170 -40 c-3 -8 -6 -5 -6 6 -1 11 2 17 5 13 3 -3 4
-12 1 -19z m-3610 -9 c19 -12 48 -40 65 -63 25 -35 27 -42 13 -44 -14 -3 -16
-11 -10 -50 9 -61 -6 -46 -26 26 -8 33 -20 56 -27 55 -12 -3 -62 68 -62 87 0
15 8 13 47 -11z m1966 4 c-7 -2 -19 -2 -25 0 -7 3 -2 5 12 5 14 0 19 -2 13 -5z
m-2112 -32 c-26 -36 -129 -131 -143 -131 -5 0 13 18 40 40 28 21 65 57 83 80
37 46 50 54 20 11z m3739 -6 c0 -18 -5 -25 -20 -25 -22 0 -26 20 -8 38 19 19
28 14 28 -13z m45 -15 c9 -16 12 -30 7 -30 -4 0 -13 14 -19 30 -6 17 -10 30
-7 30 2 0 10 -13 19 -30z m-1712 3 c-7 -2 -19 -2 -25 0 -7 3 -2 5 12 5 14 0
19 -2 13 -5z m-48 -13 c-3 -5 -13 -10 -21 -10 -8 0 -14 5 -14 10 0 6 9 10 21
10 11 0 17 -4 14 -10z m-48 -16 c-3 -3 -12 -4 -19 -1 -8 3 -5 6 6 6 11 1 17
-2 13 -5z m-47 -14 c0 -5 -5 -10 -11 -10 -5 0 -7 5 -4 10 3 6 8 10 11 10 2 0
4 -4 4 -10z m-43 -16 c-3 -3 -12 -4 -19 -1 -8 3 -5 6 6 6 11 1 17 -2 13 -5z
m1834 -57 c-8 -8 -11 -7 -11 4 0 20 13 34 18 19 3 -7 -1 -17 -7 -23z m-2044
-23 c-3 -3 -12 -4 -19 -1 -8 3 -5 6 6 6 11 1 17 -2 13 -5z m623 2 c0 -2 -7 -7
-16 -10 -8 -3 -12 -2 -9 4 6 10 25 14 25 6z m-660 -16 c0 -5 -2 -10 -4 -10 -3
0 -8 5 -11 10 -3 6 -1 10 4 10 6 0 11 -4 11 -10z m50 -8 c0 -5 -28 -39 -62
-76 l-62 -67 -123 2 c-101 3 -120 5 -111 16 6 8 17 12 25 9 17 -7 136 48 126
58 -4 4 0 4 8 1 8 -3 29 1 45 10 16 8 36 15 45 15 9 0 19 3 23 8 7 7 64 30 79
31 4 1 7 -3 7 -7z m535 -22 c-3 -5 -16 -15 -28 -21 -19 -9 -19 -8 3 10 28 23
34 26 25 11z m-477 -29 c47 -33 117 -51 192 -51 28 0 50 -4 50 -9 0 -5 -30
-26 -67 -47 -71 -39 -139 -87 -160 -112 -18 -21 -36 -3 -62 61 -33 84 -40 130
-24 160 7 15 17 27 21 27 4 0 26 -13 50 -29z m2046 -60 c43 -45 54 -77 45
-124 -4 -23 -8 -59 -9 -79 0 -49 -38 -91 -105 -116 -46 -18 -50 -22 -53 -56
-2 -20 -7 -34 -12 -31 -12 7 -60 110 -60 128 0 7 -13 38 -30 68 -56 103 -28
158 42 79 21 -23 38 -38 38 -32 0 10 -46 71 -63 83 -14 10 3 49 21 49 9 0 36
-19 59 -42 24 -23 43 -38 43 -32 0 5 -21 31 -46 57 -39 39 -45 49 -34 62 19
23 39 18 86 -20 23 -19 46 -35 51 -35 10 1 -63 67 -79 72 -7 3 -9 12 -5 22 6
16 10 16 47 -5 22 -12 51 -34 64 -48z m-3004 9 c0 -11 -4 -20 -9 -20 -11 0
-22 26 -14 34 12 12 23 5 23 -14z m2003 -9 c20 -8 77 -94 77 -116 0 -3 -17 3
-37 14 -40 20 -113 87 -113 102 0 12 42 12 73 0z m-2123 -61 c-12 -23 -86 -64
-100 -55 -22 13 -10 35 19 35 16 0 39 9 52 20 31 25 42 25 29 0z m-146 -6 c17
-6 22 -34 7 -34 -5 0 -19 9 -32 20 -19 15 -21 19 -7 20 9 0 23 -3 32 -6z m416
-140 c0 -38 -9 -64 -21 -64 -12 0 -30 74 -23 93 3 9 0 26 -7 39 -10 20 -8 20
20 -6 22 -22 31 -39 31 -62z m-70 -24 c0 -5 -4 -10 -10 -10 -5 0 -10 5 -10 10
0 6 5 10 10 10 6 0 10 -4 10 -10z m-1130 -46 c0 -8 -4 -12 -10 -9 -5 3 -10 10
-10 16 0 5 5 9 10 9 6 0 10 -7 10 -16z m37 -26 c-3 -7 -5 -2 -5 12 0 14 2 19
5 13 2 -7 2 -19 0 -25z m1072 21 c34 -12 51 -35 51 -69 0 -17 -4 -19 -27 -14
-29 7 -93 51 -93 63 0 9 22 31 31 31 3 0 20 -5 38 -11z m2401 -24 c0 -14 -4
-25 -8 -25 -5 0 -19 11 -32 25 l-23 25 31 0 c27 0 32 -4 32 -25z m-8 -57 c55
-40 67 -55 55 -67 -9 -9 -8 -17 1 -32 13 -20 9 -39 -8 -39 -5 0 -10 9 -12 20
-2 12 -7 21 -13 21 -37 3 -78 60 -68 97 7 27 7 27 45 0z m-2307 -26 c0 -18
-20 -15 -23 4 -3 10 1 15 10 12 7 -3 13 -10 13 -16z m2646 -125 c-17 -17 -24
-1 -10 25 12 21 14 21 17 4 2 -10 -1 -23 -7 -29z m-1756 -106 c-6 -4 -29 -18
-52 -30 -24 -11 -61 -30 -83 -42 -37 -19 -60 -19 -60 1 0 18 125 79 165 79 22
1 35 -3 30 -8z m1505 -21 c0 -5 -2 -10 -4 -10 -3 0 -8 5 -11 10 -3 6 -1 10 4
10 6 0 11 -4 11 -10z m-1410 -53 c46 -61 49 -81 18 -114 -23 -24 -68 -31 -68
-10 0 6 -18 40 -40 75 -22 34 -40 66 -40 71 0 11 41 30 67 30 16 1 34 -15 63
-52z m1405 6 c3 -16 10 -42 15 -59 13 -40 13 -44 -6 -44 -21 0 -47 65 -39 101
8 37 23 37 30 2z m245 3 c0 -3 -4 -8 -10 -11 -5 -3 -10 -1 -10 4 0 6 5 11 10
11 6 0 10 -2 10 -4z m-3936 -18 c-19 -32 -57 -78 -65 -78 -19 0 -9 59 13 74
27 19 62 22 52 4z m2176 -60 c22 -40 39 -80 37 -88 -2 -16 -63 -60 -83 -60
-13 0 -94 144 -94 167 0 18 50 53 76 53 19 0 32 -15 64 -72z m1715 -10 c16
-23 29 -54 29 -69 1 -17 6 -25 14 -22 6 3 12 -2 12 -10 0 -8 -6 -17 -12 -20
-10 -3 -10 -10 2 -32 12 -22 12 -29 2 -33 -10 -3 -10 -7 -1 -18 9 -11 6 -16
-15 -25 -23 -11 -28 -9 -46 11 -16 18 -20 20 -20 7 0 -28 43 -49 74 -37 26 10
27 12 22 70 -5 48 -3 60 9 60 7 0 18 -6 22 -12 4 -7 18 -21 29 -31 21 -18 22
-17 53 32 42 70 48 97 23 112 -11 7 -18 19 -15 26 9 22 39 14 53 -14 39 -84
63 -155 70 -215 5 -37 16 -89 24 -115 8 -26 22 -83 31 -126 10 -42 21 -79 25
-82 5 -3 6 -13 3 -23 -2 -11 3 -36 11 -57 9 -20 16 -41 16 -46 0 -10 -82 -12
-156 -3 l-52 7 -30 66 c-77 171 -90 200 -108 258 -18 58 -44 86 -44 46 1 -27
34 -122 70 -200 39 -83 72 -165 68 -168 -2 -2 -43 -5 -92 -6 l-88 -4 -13 50
c-14 52 -95 216 -123 248 -17 20 -62 141 -62 168 0 17 5 16 53 -6 28 -14 62
-25 74 -25 21 0 22 4 19 59 -3 48 -1 58 10 54 8 -3 14 -13 14 -22 0 -9 4 -23
10 -31 6 -10 9 -5 8 18 -1 18 -4 32 -8 32 -3 0 -16 9 -28 20 -17 16 -22 32
-22 73 0 87 40 103 85 35z m117 -96 c15 -18 25 -38 21 -44 -8 -14 -90 74 -104
110 -16 41 1 44 28 5 14 -21 39 -53 55 -71z m-1956 26 l36 -72 -26 -23 c-45
-38 -61 -31 -96 44 l-31 68 31 27 c16 16 35 28 40 28 5 0 26 -32 46 -72z
m1632 6 c-5 -42 -28 -43 -28 -1 0 18 3 37 7 41 12 12 25 -11 21 -40z m380 11
c-3 -3 -9 2 -12 12 -6 14 -5 15 5 6 7 -7 10 -15 7 -18z m-339 -35 c-6 -24 -7
-55 -4 -67 6 -24 -1 -28 -23 -15 -10 7 -10 19 0 63 10 45 26 75 35 66 1 -2 -3
-23 -8 -47z m-1777 -51 l27 -54 -21 -17 c-33 -29 -64 -23 -77 13 -16 47 -13
90 7 105 26 20 34 13 64 -47z m-349 -26 c-3 -32 -1 -75 5 -95 6 -21 7 -38 2
-38 -18 0 -29 136 -14 174 11 28 12 18 7 -41z m2077 47 c0 -5 -5 -10 -11 -10
-5 0 -7 5 -4 10 3 6 8 10 11 10 2 0 4 -4 4 -10z m105 -78 c-3 -3 -11 0 -18 7
-9 10 -8 11 6 5 10 -3 15 -9 12 -12z m-3965 -67 c26 -28 36 -43 23 -36 -12 6
-33 11 -46 11 -19 0 -30 10 -45 40 -33 68 -6 62 68 -15z m260 10 c0 -9 9 -33
20 -55 11 -22 20 -42 20 -45 0 -14 -23 -2 -44 22 l-24 27 -92 -91 c-59 -58
-93 -86 -97 -77 -2 7 0 21 5 31 13 23 194 203 205 203 4 0 7 -7 7 -15z m4194
-59 c14 -25 44 -57 66 -73 29 -21 41 -37 46 -63 3 -19 12 -54 20 -78 8 -23 14
-47 14 -53 0 -5 9 -28 19 -49 l19 -40 -38 0 c-21 0 -45 -3 -53 -6 -19 -7 -47
33 -52 75 -2 16 -9 49 -15 72 -6 23 -16 65 -20 93 -5 28 -16 77 -23 109 -8 31
-13 57 -12 57 2 0 15 -20 29 -44z m-4534 4 c0 -8 29 -76 77 -178 9 -18 13 -35
10 -38 -10 -11 -45 34 -63 82 -10 27 -22 52 -27 55 -14 10 -21 89 -8 89 6 0
11 -4 11 -10z m1718 -75 c48 -12 123 -30 166 -40 44 -9 97 -26 119 -37 21 -12
53 -24 70 -28 40 -10 -251 -12 -345 -3 -58 5 -68 9 -68 25 0 30 -18 56 -50 73
-34 17 -32 50 2 39 11 -3 59 -16 106 -29z m-1231 -12 c6 -18 -35 -24 -102 -15
-55 8 -58 10 -35 20 33 15 132 11 137 -5z m1098 -24 c4 -6 -2 -21 -14 -33 -12
-12 -21 -32 -21 -44 0 -14 -11 -27 -29 -36 -26 -14 -30 -14 -42 0 -7 9 -25 21
-39 26 -24 10 -24 11 31 38 30 16 61 36 68 44 15 18 37 21 46 5z m62 -87 c10
-63 9 -80 -3 -104 -17 -33 -21 -34 -46 -11 -18 16 -21 15 -64 -5 -55 -27 -64
-27 -64 -1 0 34 18 57 64 80 44 22 61 42 51 60 -7 10 36 71 44 63 3 -3 11 -40
18 -82z m-1249 69 c23 -14 -7 -51 -43 -53 -71 -4 -97 -3 -100 3 -8 11 25 48
48 52 40 8 82 7 95 -2z m1043 -91 c20 -11 27 -40 9 -40 -5 0 -10 5 -10 11 0 7
-9 9 -22 5 -38 -11 -172 -36 -190 -36 -10 0 -18 7 -18 15 0 10 10 15 28 15 15
1 61 9 102 20 41 10 76 19 78 19 2 1 12 -4 23 -9z m-291 -80 c0 -5 -10 -10
-22 -10 -19 0 -20 2 -8 10 19 13 30 13 30 0z m-69 -39 c70 2 84 -1 96 -16 7
-11 13 -22 13 -27 0 -4 -51 -8 -114 -8 l-114 0 -4 39 c-3 37 -3 38 18 24 16
-10 47 -13 105 -12z m498 -20 c25 -25 18 -31 -36 -31 -48 0 -59 19 -20 38 31
15 35 14 56 -7z"/>
<path d="M3618 5103 c6 -2 18 -2 25 0 6 3 1 5 -13 5 -14 0 -19 -2 -12 -5z"/>
<path d="M3490 5070 c-47 -16 -80 -29 -73 -29 6 -1 40 8 75 19 34 11 71 20 80
20 9 0 20 5 23 10 9 15 -11 11 -105 -20z"/>
<path d="M3360 5030 c-18 -12 -2 -12 25 0 13 6 15 9 5 9 -8 0 -22 -4 -30 -9z"/>
<path d="M4913 4867 c-4 -6 -1 -13 5 -15 23 -7 11 -22 -18 -22 -36 0 -37 -7
-6 -41 24 -28 90 -47 101 -30 3 6 -2 22 -11 36 -20 30 -15 31 39 5 l42 -21
-27 21 c-19 14 -24 26 -20 42 3 14 1 19 -6 14 -6 -3 -29 0 -51 8 -29 10 -43
10 -48 3z"/>
<path d="M797 4993 c-6 -32 15 -78 42 -92 16 -9 19 -6 24 22 3 24 -2 40 -20
65 -29 39 -39 40 -46 5z"/>
<path d="M2995 4300 c28 -11 64 -20 80 -20 l30 1 -32 14 c-18 7 -54 16 -80 20
l-48 6 50 -21z"/>
<path d="M3115 4270 c3 -5 11 -10 16 -10 6 0 7 5 4 10 -3 6 -11 10 -16 10 -6
0 -7 -4 -4 -10z"/>
<path d="M2486 4227 c-141 -75 -216 -201 -171 -286 24 -47 79 -54 151 -22 77
35 178 141 155 164 -17 17 -13 25 12 29 40 6 32 40 -20 89 -26 25 -53 48 -58
51 -6 4 -37 -8 -69 -25z"/>
<path d="M3053 4170 c-13 -5 -23 -13 -23 -18 0 -5 29 -36 65 -69 61 -57 66
-59 81 -42 14 16 14 21 2 46 -8 15 -21 42 -29 58 -16 33 -54 42 -96 25z"/>
<path d="M3378 4045 c-10 -13 -18 -28 -18 -33 0 -14 77 -151 106 -189 30 -39
41 -36 49 15 3 20 10 52 16 71 11 33 10 35 -52 97 -35 35 -68 64 -74 64 -5 0
-18 -11 -27 -25z"/>
<path d="M3050 3959 c-19 -6 -16 -7 15 -3 55 6 92 -19 157 -106 29 -38 56 -70
61 -70 12 0 -45 74 -107 138 -52 54 -71 60 -126 41z"/>
<path d="M2975 3940 c-13 -5 -14 -9 -5 -9 8 0 24 4 35 9 13 5 14 9 5 9 -8 0
-24 -4 -35 -9z"/>
<path d="M2811 3895 c-36 -12 -67 -27 -69 -33 -5 -16 9 -15 33 2 11 7 44 21
73 30 28 10 52 19 52 22 0 7 -23 2 -89 -21z"/>
<path d="M2305 3890 c10 -11 20 -20 23 -20 3 0 -3 9 -13 20 -10 11 -20 20 -23
20 -3 0 3 -9 13 -20z"/>
<path d="M2358 3673 c6 -2 18 -2 25 0 6 3 1 5 -13 5 -14 0 -19 -2 -12 -5z"/>
<path d="M2988 3653 c7 -3 16 -2 19 1 4 3 -2 6 -13 5 -11 0 -14 -3 -6 -6z"/>
<path d="M2590 3630 c-24 -8 -23 -8 8 -9 20 -1 31 3 27 9 -3 6 -7 10 -8 9 -1
-1 -13 -5 -27 -9z"/>
<path d="M3158 3623 c7 -3 16 -2 19 1 4 3 -2 6 -13 5 -11 0 -14 -3 -6 -6z"/>
<path d="M2424 3574 c3 -9 6 -18 6 -20 0 -2 16 -4 35 -4 19 0 35 5 35 10 0 6
-11 10 -24 10 -14 0 -28 5 -31 10 -10 16 -28 11 -21 -6z"/>
<path d="M2721 3577 c-6 -8 -22 -12 -36 -9 -15 2 -25 0 -25 -7 0 -17 70 -14
77 4 8 22 -2 29 -16 12z"/>
<path d="M2811 3569 c11 -11 24 -18 27 -14 4 4 -2 13 -12 21 -30 21 -39 17
-15 -7z"/>
<path d="M2911 3556 c-8 -10 -9 -16 -1 -21 5 -3 13 1 16 10 9 22 -1 29 -15 11z"/>
<path d="M3000 3564 c0 -22 24 -44 48 -43 26 0 26 1 5 9 -13 5 -23 14 -23 19
0 5 -7 11 -15 15 -8 3 -15 3 -15 0z"/>
<path d="M1030 4734 c0 -21 25 -84 33 -84 5 0 6 8 2 18 -3 9 -9 29 -12 45 -5
23 -23 40 -23 21z"/>
<path d="M4741 4413 c-33 -27 -21 -66 17 -61 31 3 40 33 19 61 -12 18 -14 18
-36 0z"/>
<path d="M4540 4348 c0 -25 18 -58 31 -58 5 0 9 8 7 18 -2 12 3 16 18 14 16
-2 23 3 26 20 4 21 1 23 -39 24 -36 1 -43 -2 -43 -18z"/>
<path d="M4835 4330 c-3 -5 3 -10 14 -10 12 0 24 0 28 -1 4 0 9 4 11 10 5 14
-45 15 -53 1z"/>
<path d="M4688 4309 c-10 -11 -31 -19 -48 -19 -16 0 -30 -4 -30 -10 0 -5 13
-10 29 -10 44 0 78 -16 132 -61 60 -50 64 -39 8 19 -31 32 -39 47 -34 63 12
38 -28 50 -57 18z"/>
<path d="M4495 4300 c3 -5 15 -10 26 -10 10 0 19 5 19 10 0 6 -12 10 -26 10
-14 0 -23 -4 -19 -10z"/>
<path d="M4610 4195 c0 -19 9 -28 47 -45 53 -23 73 -20 73 10 0 25 -54 60 -92
60 -23 0 -28 -4 -28 -25z"/>
<path d="M4273 4173 c-25 -9 -12 -32 44 -80 l56 -48 -89 -5 c-81 -5 -89 -7
-89 -25 0 -18 8 -20 92 -23 103 -3 184 7 190 25 3 9 -178 165 -189 162 -2 0
-9 -3 -15 -6z"/>
<path d="M4840 4147 c0 -1 16 -18 37 -37 23 -22 32 -27 25 -14 -9 18 -62 61
-62 51z"/>
<path d="M4675 3920 c-8 -12 -4 -18 58 -100 71 -93 107 -129 123 -123 23 9 16
25 -37 91 -29 34 -49 65 -47 68 3 3 35 -1 72 -7 69 -13 92 -7 81 22 -4 10 -44
23 -114 37 -124 25 -128 25 -136 12z"/>
<path d="M4850 4592 c0 -9 44 -32 58 -32 10 1 -38 40 -49 40 -5 0 -9 -4 -9 -8z"/>
<path d="M280 3393 c-33 -6 -50 -21 -50 -44 0 -14 7 -19 30 -19 32 0 70 30 70
55 0 15 -5 16 -50 8z"/>
<path d="M799 3126 c-12 -26 -7 -56 10 -56 11 0 20 69 9 76 -4 3 -13 -6 -19
-20z"/>
<path d="M842 3124 c1 -9 9 -19 16 -22 9 -3 13 2 10 14 -1 9 -9 19 -16 22 -9
3 -13 -2 -10 -14z"/>
<path d="M861 3081 c-16 -10 -6 -31 15 -31 8 0 14 9 14 20 0 22 -7 25 -29 11z"/>
<path d="M3826 3153 c27 -39 44 -54 44 -35 -1 10 -21 33 -50 57 -22 18 -21 16
6 -22z"/>
<path d="M3813 2782 c-58 -21 -133 -67 -133 -82 0 -13 3 -13 50 6 52 21 170
15 220 -11 44 -22 97 -71 116 -108 23 -44 37 -22 32 48 -9 112 -54 155 -167
162 -47 2 -81 -2 -118 -15z"/>
<path d="M3379 2670 c-13 -14 -36 -39 -50 -55 -26 -31 -49 -48 -84 -64 -51
-23 -102 -80 -115 -128 -26 -102 -32 -114 -68 -138 l-37 -25 69 4 70 5 22 66
c12 37 33 83 47 104 59 88 198 201 249 201 13 0 28 8 35 19 11 17 9 18 -29 8
-23 -6 -57 -18 -77 -28 -43 -21 -55 -15 -23 12 13 10 22 24 20 31 -3 8 -13 4
-29 -12z"/>
<path d="M3881 2586 c4 -4 21 -11 39 -16 20 -6 30 -6 24 -1 -10 11 -72 27 -63
17z"/>
<path d="M4010 2541 c0 -9 30 -24 36 -18 2 1 -6 8 -16 15 -11 7 -20 8 -20 3z"/>
<path d="M3371 2244 c0 -11 3 -14 6 -6 3 7 2 16 -1 19 -3 4 -6 -2 -5 -13z"/>
<path d="M3830 2182 c6 -13 14 -21 18 -18 3 4 -2 14 -12 24 -18 16 -18 16 -6
-6z"/>
<path d="M3362 2130 c0 -19 2 -27 5 -17 2 9 2 25 0 35 -3 9 -5 1 -5 -18z"/>
<path d="M3360 2021 c0 -11 5 -23 10 -26 6 -3 10 3 10 14 0 11 -4 23 -10 26
-5 3 -10 -3 -10 -14z"/>
<path d="M3371 1964 c0 -11 3 -14 6 -6 3 7 2 16 -1 19 -3 4 -6 -2 -5 -13z"/>
<path d="M3381 1924 c0 -11 3 -14 6 -6 3 7 2 16 -1 19 -3 4 -6 -2 -5 -13z"/>
<path d="M3374 1866 c-4 -10 -2 -21 3 -25 6 -3 14 -21 18 -40 4 -19 11 -39 16
-45 5 -6 18 -22 28 -36 17 -22 20 -23 26 -8 4 11 -4 34 -24 63 -17 25 -31 52
-31 59 0 7 -6 21 -14 32 -14 18 -15 18 -22 0z"/>
<path d="M3250 1811 c0 -12 5 -21 10 -21 6 0 10 6 10 14 0 8 -4 18 -10 21 -5
3 -10 -3 -10 -14z"/>
<path d="M3910 1739 c0 -5 5 -7 10 -4 6 3 10 8 10 11 0 2 -4 4 -10 4 -5 0 -10
-5 -10 -11z"/>
<path d="M3195 1710 c-19 -36 -4 -40 19 -5 19 28 20 35 6 35 -5 0 -16 -13 -25
-30z"/>
<path d="M4055 1703 c-11 -3 -39 -14 -62 -24 -23 -10 -46 -19 -51 -19 -13 0
-72 -61 -72 -75 0 -40 147 -185 187 -185 25 0 13 17 -26 35 -22 9 -53 32 -71
50 l-31 32 59 5 c48 3 69 11 121 46 50 33 63 38 68 26 9 -24 -5 -102 -23 -129
-20 -30 -9 -49 12 -20 40 54 41 208 3 246 -19 19 -67 23 -114 12z"/>
<path d="M4283 1583 c-17 -35 -28 -63 -24 -63 14 0 41 36 41 54 0 9 5 26 11
37 6 11 9 23 7 27 -2 4 -17 -21 -35 -55z"/>
<path d="M3370 1442 c0 -5 9 -26 21 -48 12 -24 18 -29 14 -14 -4 14 -9 35 -12
48 -5 21 -23 32 -23 14z"/>
<path d="M3460 1255 c0 -5 10 -21 21 -35 13 -17 17 -18 10 -5 -17 33 -31 51
-31 40z"/>
<path d="M3516 1168 c10 -14 21 -24 23 -22 3 3 -6 15 -18 27 l-24 22 19 -27z"/>
<path d="M3600 1127 c0 -19 29 -57 44 -57 11 0 10 8 -3 35 -16 34 -41 47 -41
22z"/>
<path d="M3550 1126 c0 -2 7 -9 15 -16 13 -11 14 -10 9 4 -5 14 -24 23 -24 12z"/>
<path d="M3033 1102 c-13 -2 -23 -7 -23 -12 0 -12 25 -19 40 -10 19 12 8 25
-17 22z"/>
<path d="M2868 1082 c-31 -4 -36 -23 -13 -42 8 -7 15 -16 15 -21 0 -26 73 -69
117 -69 23 0 35 38 24 73 -9 27 -19 34 -63 47 -29 8 -65 14 -80 12z"/>
<path d="M3639 984 c-11 -14 -10 -19 10 -35 13 -11 28 -19 35 -18 6 0 1 5 -11
11 -26 12 -29 28 -11 46 8 8 8 12 1 12 -6 0 -17 -7 -24 -16z"/>
<path d="M3728 913 c6 -2 12 -19 13 -36 l1 -32 9 30 c8 29 -1 46 -26 44 -5 0
-4 -3 3 -6z"/>
<path d="M3788 915 c-3 -6 -9 -27 -13 -48 -4 -20 -11 -40 -16 -43 -5 -3 -9
-16 -9 -30 0 -14 -3 -23 -7 -21 -5 3 -9 -35 -10 -84 -1 -71 -6 -97 -24 -129
-21 -38 -22 -40 -5 -59 16 -18 16 -21 1 -50 -15 -30 -15 -31 4 -31 13 0 21 9
26 30 6 26 11 30 33 28 25 -3 27 0 27 34 0 20 3 34 8 31 4 -2 7 13 7 33 0 34
-1 36 -13 19 -12 -16 -15 -12 -20 39 -3 32 -3 64 0 72 8 21 24 17 30 -7 8 -28
23 -5 23 35 0 23 -3 27 -12 18 -7 -7 -20 -12 -30 -12 -26 0 -23 40 7 84 23 33
24 39 12 68 -7 18 -16 28 -19 23z m8 -72 c-10 -10 -19 5 -10 18 6 11 8 11 12
0 2 -7 1 -15 -2 -18z m-51 -283 c-9 -17 -13 -35 -10 -40 3 -6 1 -10 -5 -10
-19 0 -23 30 -6 49 9 10 16 28 16 42 1 21 2 22 11 7 7 -13 5 -26 -6 -48z"/>
<path d="M3833 815 c0 -22 2 -30 4 -17 2 12 2 30 0 40 -3 9 -5 -1 -4 -23z"/>
<path d="M3807 656 c-4 -10 -5 -21 -2 -24 9 -9 17 6 13 25 -3 17 -4 17 -11 -1z"/>
<path d="M4046 505 c8 -37 14 -45 14 -19 0 10 -5 26 -10 34 -8 11 -9 7 -4 -15z"/>
<path d="M3666 385 c-16 -25 -14 -45 4 -45 9 0 25 59 17 66 -2 3 -12 -7 -21
-21z"/>
<path d="M4131 205 c0 -11 4 -27 9 -35 9 -13 10 -13 9 0 0 8 -4 24 -9 35 l-9
20 0 -20z"/>
<path d="M387 2924 c-4 -4 -7 -16 -7 -26 0 -10 -5 -18 -11 -18 -6 0 -9 -8 -7
-17 6 -30 32 -20 42 15 9 32 -2 61 -17 46z"/>
<path d="M437 2903 c-10 -9 -9 -83 1 -83 15 0 28 16 29 35 0 11 3 28 8 38 5
13 2 17 -12 17 -11 0 -23 -3 -26 -7z"/>
<path d="M1409 2241 c39 -48 39 -58 3 -31 -51 38 -132 45 -185 18 -20 -10 -57
-66 -57 -86 0 -7 15 3 34 22 18 20 39 36 46 36 9 0 6 -8 -7 -22 -62 -68 -81
-156 -39 -184 23 -14 28 -14 60 1 54 26 124 131 117 178 -1 9 2 17 7 17 16 0
43 -49 50 -93 9 -49 33 -60 50 -22 7 14 17 23 22 20 6 -3 14 -3 20 0 16 10
-17 63 -78 127 -63 66 -89 78 -43 19z m-49 -105 c0 -7 -6 -19 -14 -25 -19 -16
-32 5 -16 24 16 19 30 19 30 1z m140 -17 c0 -6 -4 -7 -10 -4 -5 3 -10 11 -10
16 0 6 5 7 10 4 6 -3 10 -11 10 -16z m-190 -19 c0 -5 -5 -10 -11 -10 -5 0 -7
5 -4 10 3 6 8 10 11 10 2 0 4 -4 4 -10z"/>
<path d="M1748 2043 c-10 -2 -18 -8 -18 -12 0 -4 -14 -23 -31 -42 -36 -38 -79
-128 -72 -146 10 -25 42 -12 78 29 22 26 34 50 31 60 -2 11 1 18 11 18 8 0 17
9 20 20 3 11 9 20 14 20 20 0 18 -24 -5 -65 -29 -53 -22 -57 22 -12 35 36 41
71 15 99 -15 17 -14 18 23 19 31 0 35 2 19 9 -21 9 -78 11 -107 3z"/>
<path d="M1199 1859 c-6 -13 -9 -47 -7 -82 4 -55 8 -63 46 -98 55 -52 93 -52
206 1 47 22 86 43 86 48 0 4 -57 32 -127 61 -71 30 -140 63 -155 73 -33 23
-35 23 -49 -3z m241 -101 c27 -13 30 -17 14 -17 -29 -1 -82 18 -126 46 -58 36
-45 45 20 14 31 -15 73 -34 92 -43z"/>
<path d="M1595 1801 c3 -11 1 -22 -5 -26 -12 -7 -14 -25 -2 -25 5 0 16 6 26
13 16 12 17 16 5 35 -17 27 -33 29 -24 3z"/>
<path d="M4281 670 c-11 -6 -12 -14 -5 -28 7 -16 12 -18 20 -8 16 17 3 48 -15
36z"/>
<path d="M810 4630 c6 -11 15 -20 20 -20 17 0 11 15 -11 28 -19 12 -19 11 -9
-8z"/>
<path d="M705 4620 c10 -11 20 -20 23 -20 3 0 -3 9 -13 20 -10 11 -20 20 -23
20 -3 0 3 -9 13 -20z"/>
<path d="M688 4482 c-3 -12 -19 -27 -34 -33 -40 -15 -113 -71 -114 -87 0 -10
5 -9 22 2 12 9 30 16 40 16 10 0 18 4 18 10 0 8 51 40 65 40 3 0 5 -18 5 -40
0 -29 -4 -40 -15 -40 -8 0 -15 7 -15 16 0 8 -5 12 -10 9 -6 -4 -8 -15 -5 -24
3 -11 -3 -25 -15 -36 -11 -10 -20 -28 -21 -39 0 -17 -3 -16 -14 9 l-14 30 0
-35 c0 -19 4 -55 8 -80 l7 -45 17 39 c10 22 15 41 13 44 -10 9 35 82 59 98 22
14 25 23 24 73 0 31 -4 65 -8 75 -7 19 -8 19 -13 -2z"/>
<path d="M32 4405 c0 -16 2 -22 5 -12 2 9 2 23 0 30 -3 6 -5 -1 -5 -18z"/>
<path d="M5186 4365 c-3 -8 -1 -15 4 -15 6 0 10 7 10 15 0 8 -2 15 -4 15 -2 0
-6 -7 -10 -15z"/>
<path d="M35 4288 c2 -49 11 -93 24 -123 29 -65 26 -73 -9 -35 -16 18 -30 28
-30 22 0 -5 6 -15 14 -21 19 -16 29 -62 17 -74 -27 -27 10 -39 39 -12 9 8 30
15 48 17 18 1 32 6 32 11 0 4 -7 7 -16 5 -9 -2 -23 8 -32 22 l-16 25 22 -19
c32 -28 27 -11 -12 40 -31 41 -66 126 -80 194 -3 14 -3 -10 -1 -52z"/>
<path d="M528 4297 c-12 -30 -10 -93 3 -80 5 5 9 30 7 54 -2 31 -5 39 -10 26z"/>
<path d="M255 4290 c-3 -5 3 -10 14 -10 11 0 23 5 26 10 3 6 -3 10 -14 10 -11
0 -23 -4 -26 -10z"/>
<path d="M293 4202 c-15 -10 -33 -56 -33 -87 0 -13 10 -29 25 -39 33 -22 39
-20 21 6 -19 27 -21 59 -4 76 19 19 26 15 38 -23 13 -39 37 -62 28 -27 -9 33
8 26 31 -13 26 -45 51 -46 51 -2 1 27 2 29 11 14 6 -10 9 -27 6 -38 -3 -11 -1
-16 5 -13 5 4 8 18 5 33 -16 77 -24 97 -47 108 -27 14 -118 17 -137 5z"/>
<path d="M760 4180 c0 -12 28 -25 36 -17 3 3 -4 10 -15 17 -15 7 -21 7 -21 0z"/>
<path d="M190 4055 c7 -9 15 -13 17 -11 7 7 -7 26 -19 26 -6 0 -6 -6 2 -15z"/>
<path d="M382 4048 c3 -7 13 -15 24 -17 16 -3 17 -1 5 13 -16 19 -34 21 -29 4z"/>
<path d="M275 4010 c3 -5 16 -15 28 -21 22 -12 22 -12 3 10 -19 21 -43 30 -31
11z"/>
<path d="M725 3956 c32 -14 41 -13 30 3 -3 6 -18 11 -33 11 l-27 -1 30 -13z"/>
<path d="M595 3897 c-4 -10 -3 -23 4 -30 16 -16 23 -3 12 24 -8 22 -10 22 -16
6z"/>
<path d="M667 3738 c4 -13 7 -40 6 -61 -1 -31 1 -36 13 -26 8 6 14 28 14 48 0
20 4 41 10 47 6 6 -1 11 -21 12 -28 2 -30 0 -22 -20z"/>
<path d="M350 3600 c-25 -6 -35 -30 -15 -36 14 -5 60 32 49 38 -5 3 -20 2 -34
-2z"/>
<path d="M288 3585 c-8 -9 12 -55 24 -55 4 0 8 6 8 13 0 18 -24 50 -32 42z"/>
<path d="M355 3544 c-12 -12 -13 -20 -5 -28 13 -13 44 4 48 28 4 21 -22 21
-43 0z"/>
<path d="M4640 1831 c0 -6 4 -13 10 -16 6 -3 7 1 4 9 -7 18 -14 21 -14 7z"/>
<path d="M4750 1535 c7 -9 15 -13 17 -11 7 7 -7 26 -19 26 -6 0 -6 -6 2 -15z"/>
<path d="M4705 1419 c-4 -6 -5 -13 -2 -16 7 -7 27 6 27 18 0 12 -17 12 -25 -2z"/>
<path d="M4818 1423 c7 -3 16 -2 19 1 4 3 -2 6 -13 5 -11 0 -14 -3 -6 -6z"/>
<path d="M4856 1405 c4 -8 8 -15 10 -15 2 0 4 7 4 15 0 8 -4 15 -10 15 -5 0
-7 -7 -4 -15z"/>
<path d="M4837 1350 c-17 -28 -17 -30 3 -50 12 -12 24 -20 26 -17 3 3 -3 12
-12 21 -14 14 -15 22 -5 43 17 36 8 38 -12 3z"/>
<path d="M4741 1229 c-35 -38 -68 -69 -74 -69 -7 0 -7 4 1 12 14 14 16 38 2
38 -5 0 -7 -6 -4 -13 3 -8 -2 -19 -10 -26 -15 -12 -12 -41 5 -41 4 0 36 29 71
65 34 36 65 62 69 58 18 -18 59 -106 59 -126 0 -15 -14 -31 -43 -49 -65 -43
-114 -87 -96 -88 8 0 43 22 77 50 34 28 66 50 72 50 16 0 44 -50 34 -60 -5 -5
-30 -10 -57 -12 -66 -4 -59 -22 10 -26 35 -2 65 -9 75 -19 26 -24 35 -6 15 28
-9 17 -17 38 -17 46 0 17 -112 253 -120 252 -3 0 -34 -32 -69 -70z"/>
<path d="M4880 1250 c6 -11 13 -20 16 -20 2 0 0 9 -6 20 -6 11 -13 20 -16 20
-2 0 0 -9 6 -20z"/>
<path d="M4310 1221 c0 -11 4 -22 9 -25 4 -3 6 6 3 19 -5 30 -12 33 -12 6z"/>
<path d="M4605 1211 c4 -17 1 -38 -6 -49 -10 -17 -10 -23 1 -37 9 -11 16 -13
24 -5 8 8 7 13 -3 19 -14 9 -7 51 12 62 14 10 1 39 -18 39 -13 0 -15 -6 -10
-29z"/>
<path d="M4490 1150 c-33 -26 -14 -26 25 0 17 11 23 20 15 20 -8 0 -26 -9 -40
-20z"/>
<path d="M4246 1111 c-4 -5 3 -7 14 -4 23 6 26 13 6 13 -8 0 -17 -4 -20 -9z"/>
<path d="M4680 1111 c0 -5 5 -13 10 -16 6 -3 10 -2 10 4 0 5 -4 13 -10 16 -5
3 -10 2 -10 -4z"/>
<path d="M4641 1054 c0 -11 3 -14 6 -6 3 7 2 16 -1 19 -3 4 -6 -2 -5 -13z"/>
<path d="M4710 1050 c0 -19 3 -21 12 -12 9 9 9 15 0 24 -9 9 -12 7 -12 -12z"/>
<path d="M5010 1023 c0 -12 -4 -24 -10 -28 -5 -3 -6 -13 -3 -21 4 -12 10 -8
20 17 9 22 10 36 3 43 -7 7 -10 3 -10 -11z"/>
<path d="M4662 1019 c2 -6 8 -10 13 -10 5 0 11 4 13 10 2 6 -4 11 -13 11 -9 0
-15 -5 -13 -11z"/>
<path d="M4696 955 c9 -14 18 -25 20 -25 2 0 -2 11 -8 25 -6 14 -15 25 -20 25
-5 0 -1 -11 8 -25z"/>
<path d="M5030 931 c0 -5 7 -14 15 -21 8 -7 15 -23 15 -36 0 -13 5 -24 10 -24
6 0 10 -11 10 -23 0 -18 -10 -28 -39 -42 -22 -9 -44 -14 -50 -11 -14 9 -14 53
-1 61 13 8 13 25 -1 25 -6 0 -13 -9 -16 -19 -6 -25 -31 -35 -50 -20 -11 9 -17
9 -26 0 -9 -10 -9 -12 3 -10 30 5 68 -20 78 -51 9 -24 14 -29 24 -20 7 6 33
21 58 33 25 12 46 30 48 40 2 10 -13 42 -33 72 -35 54 -45 64 -45 46z"/>
<path d="M4954 885 c-13 -20 -20 -23 -30 -14 -14 11 -44 6 -44 -8 0 -15 68 -8
86 8 11 9 26 14 34 11 16 -5 15 -4 -12 16 -14 11 -19 10 -34 -13z"/>
<path d="M4759 845 c19 -38 55 -80 100 -117 26 -22 38 -23 21 -3 -10 12 -10
21 -1 41 16 36 13 44 -5 10 l-16 -28 -37 38 c-20 22 -47 53 -59 69 l-23 30 20
-40z"/>
<path d="M5018 833 c7 -3 16 -2 19 1 4 3 -2 6 -13 5 -11 0 -14 -3 -6 -6z"/>
</g>
</svg>
